<?xml version="1.0" encoding="utf-8"?>
<!-- Generator: Adobe Illustrator 24.2.0, SVG Export Plug-In . SVG Version: 6.00 Build 0)  -->
<svg version="1.1" xmlns="http://www.w3.org/2000/svg" xmlns:xlink="http://www.w3.org/1999/xlink" x="0px" y="0px"
	 viewBox="0 0 750 500" style="enable-background:new 0 0 750 500;" xml:space="preserve">
<style type="text/css">
	.st0{display:none;}
	.st1{display:inline;fill:url(#SVGID_1_);}
	.st2{fill:url(#SVGID_2_);}
	.st3{opacity:0.5;fill:#FFFFFF;}
	.st4{fill:#FFFFFF;}
	.st5{display:inline;}
	.st6{fill:#4C60A5;}
	.st7{font-family:'FiraSans-Book';}
	.st8{font-size:8px;}
	.st9{fill:#FB6F6E;}
	.st10{fill:#637ABE;}
	.st11{fill:#82A7F7;}
	.st12{fill:#A0ABE9;}
	.st13{fill:#697DD1;}
	.st14{fill:#617FC8;}
	.st15{fill:#7AA2F7;}
	.st16{fill:#D5E5FC;}
	.st17{fill:#E0EEFB;}
	.st18{fill:#F3A9B8;}
	.st19{opacity:0.7;fill:#E0EEFB;}
	.st20{opacity:0.5;fill:#E0EEFB;}
	.st21{fill:none;stroke:#2E3154;stroke-width:0.5;stroke-miterlimit:10;}
	.st22{fill:none;stroke:#2E3154;stroke-width:0.5;stroke-miterlimit:10;stroke-dasharray:1.0014,1.0014;}
	.st23{fill:#2E3154;}
	.st24{fill:#5A75C2;}
	.st25{fill:#354B87;}
	.st26{font-family:'SarySoft-Regular';}
	.st27{font-size:113.3583px;}
	.st28{display:none;fill:#4C60A5;}
	.st29{font-family:'FiraSans-Light';}
	.st30{font-size:9px;}
	.st31{font-size:14.1283px;}
	.st32{display:inline;fill:#4C60A5;}
	.st33{font-family:'FiraSansCondensed-Book';}
	.st34{font-size:12.5869px;}
	.st35{fill:#A5B7C6;}
</style>
<g id="BACKGROUND" class="st0">
	<radialGradient id="SVGID_1_" cx="375" cy="250" r="716.5588" gradientUnits="userSpaceOnUse">
		<stop  offset="0" style="stop-color:#FFFFFF"/>
		<stop  offset="1" style="stop-color:#B3B3B3"/>
	</radialGradient>
	<rect class="st1" width="750" height="500"/>
</g>
<g id="OBJECTS">
	<g>
		<g>
			<linearGradient id="SVGID_2_" gradientUnits="userSpaceOnUse" x1="374.9587" y1="342.7945" x2="374.9587" y2="74.7844">
				<stop  offset="0" style="stop-color:#F4E0EB"/>
				<stop  offset="1" style="stop-color:#D5E5FC"/>
			</linearGradient>
			<rect x="76.8" y="59.9" class="st2" width="596.3" height="380.1"/>
		</g>
		<path class="st3" d="M76.8,238.9c0,0,71.7-13.3,188.6,22.2c143.7,43.6,246-53,407.6-19.5c0,32.8,0,120.9,0,120.9H76.8V238.9z"/>
		<path class="st4" d="M76.8,336.9c0,0,68.3-22.2,265.8-22.2s330.4,26.6,330.4,26.6v98.8H76.8V336.9z"/>
		<g>
			<path class="st4" d="M445.9,159h44.5c0,0-1.5-4.6-10.1-3.7c-5.7-9.1-14.1-1.8-14.1-0.1C460.6,143.9,445.9,151.6,445.9,159z"/>
			<path class="st4" d="M574.7,198.5H650c0,0-2.6-7.3-13.9-5.1c-7.9-16.2-26-21.1-36.6-6.6C580.7,184.4,574.7,198.5,574.7,198.5z"/>
			<path class="st4" d="M139.2,200.2h45.4c0,0-1.6-4.4-8.4-3c-4.8-9.8-15.7-12.7-22-4C142.8,191.7,139.2,200.2,139.2,200.2z"/>
			<g>
				<path class="st4" d="M144.5,134.6c-10.6-26-44.7-17.3-47.6,1.9c-7.7-4.2-14.5-4.4-20.1-2.8v13.4H170
					C170,147.1,163.3,132.7,144.5,134.6z"/>
			</g>
			<g>
				<path class="st4" d="M664.4,125.4c-8.9-21.7-37.4-14.5-39.9,1.6c-19.3-10.5-31.8,8.9-31.8,8.9h80.4V126
					C670.7,125.4,667.8,125.1,664.4,125.4z"/>
			</g>
		</g>
	</g>
	<g class="st0">
		<g class="st5">
			<g>
				<g>
					<text transform="matrix(1 0 0 1 492.5932 81.0521)" class="st6 st7 st8">ABOUT</text>
					<text transform="matrix(1 0 0 1 454.2223 81.0521)" class="st9 st7 st8">HOME</text>
					<text transform="matrix(1 0 0 1 535.5504 81.0521)" class="st6 st7 st8">SERVICES</text>
					<text transform="matrix(1 0 0 1 582.11 81.0521)" class="st6 st7 st8">CONTACT</text>
					<text transform="matrix(1 0 0 1 630.4368 81.0521)" class="st6 st7 st8">JOIN</text>
				</g>
			</g>
		</g>
	</g>
	<g>
		<g>
			<path class="st6" d="M356.9,301.6c-4.8-1.4-8.2,0.1-10.6,3.2l8.6,8.6L356.9,301.6z"/>
			<path class="st6" d="M345.6,372.9l6.5-2c0,0,3.8-8.8,7.4-20.1l-10.3,1.3L345.6,372.9z"/>
			<polygon class="st6" points="342,348.9 342,374 344.6,373.3 348.2,352 			"/>
			<path class="st6" d="M352.4,327.7l2.2-13l-8.9-9c-1.8,2.8-3,6.6-3.7,10.8v3.4L352.4,327.7z"/>
			<path class="st6" d="M349.4,351.1l10.5-1.3c1.1-3.4,2.1-7,3-10.7l-11.7,1.6L349.4,351.1z"/>
			<polygon class="st6" points="352.3,328.8 342,321.1 342,334.8 350.4,339.4 			"/>
			<path class="st6" d="M364.7,310.1c-1.1-3.9-3.3-6.8-6.8-8.2l-2,11.8L364.7,310.1z"/>
			<path class="st6" d="M353.4,327.9l12-2.5c0.6-5.3,0.6-10.2-0.4-14.3l-9.3,3.8L353.4,327.9z"/>
			<polygon class="st6" points="332.8,362.5 341,355.3 341,340.4 329.8,350.1 			"/>
			<path class="st6" d="M351.4,339.6l11.7-1.6c0.9-3.9,1.7-7.8,2.2-11.6l-12.1,2.5L351.4,339.6z"/>
			<polygon class="st6" points="350.2,340.5 342,335.9 342,347.8 348.4,351 			"/>
			<path class="st6" d="M325.9,338.2l-23.4-1.4c1,4.6,2.2,9.2,3.7,13.6l22.4-0.9L325.9,338.2z"/>
			<path class="st6" d="M322.2,323l-22-3c0.3,5.1,1,10.4,2.1,15.7l23.3,1.4L322.2,323z"/>
			<path class="st6" d="M313.3,286.4c-6.2,1.5-10.1,7.3-11.9,15.5l16.8,4.6L313.3,286.4z"/>
			<path class="st6" d="M322.9,321.5l15.7-16.4c-1.4-3.9-3.1-7.5-5.4-10.5l-13.8,12.7L322.9,321.5z"/>
			<path class="st6" d="M328.8,350.4l-22.3,0.9c1.5,4.3,3.2,8.5,5.1,12.4l20.3-0.8L328.8,350.4z"/>
			<path class="st6" d="M312.1,364.7c2.9,5.9,6.3,11.2,10.1,15.4l12.9-3.9l-3-12.2L312.1,364.7z"/>
			<polygon class="st6" points="329.5,349 341,339.1 341,325.7 326.8,337.9 			"/>
			<path class="st6" d="M326.6,336.8l14.5-12.4v-9.8c-0.5-2.9-1.2-5.7-2.1-8.4l-15.8,16.4L326.6,336.8z"/>
			<polygon class="st6" points="333.1,363.6 336.1,375.9 341,374.3 341,356.6 			"/>
			<path class="st6" d="M332.6,293.9c-3.3-4.1-7.7-6.9-13.4-7.7c-1.8-0.2-3.4-0.2-4.9,0l4.9,20L332.6,293.9z"/>
			<path class="st6" d="M318.4,307.6l-17.3-4.7c-1,4.8-1.3,10.3-1,16.2l21.8,2.9L318.4,307.6z"/>
			<polygon class="st10" points="332.7,363.9 332.1,364 335.1,376.2 336.1,375.9 333.1,363.6 			"/>
			<path class="st10" d="M318.7,306.6l0.4-0.4l-4.9-20c-0.3,0.1-0.7,0.1-1,0.2l4.9,20.1L318.7,306.6z"/>
			<polygon class="st10" points="332.8,362.5 329.8,350.1 329.4,350.4 328.8,350.4 331.9,363 332.3,362.9 			"/>
			<polygon class="st10" points="329.5,349 326.8,337.9 326.4,338.2 325.9,338.2 328.6,349.5 329,349.4 			"/>
			<polygon class="st10" points="322.9,321.5 319.4,307.3 319,307.7 318.4,307.6 321.9,321.9 322.4,322 			"/>
			<polygon class="st10" points="326.6,336.8 323.1,322.7 322.8,323 322.2,323 325.6,337.2 326.1,337.2 			"/>
			<polygon class="st10" points="352.3,328.8 350.4,339.4 350.9,339.7 351.4,339.6 353.2,329 352.7,329.1 			"/>
			<polygon class="st10" points="350.2,340.5 348.4,351 348.9,351.2 349.4,351.1 351.2,340.7 350.7,340.7 			"/>
			<path class="st10" d="M355.3,313.9l0.5-0.2l2-11.8c-0.3-0.1-0.6-0.2-0.9-0.3c0,0,0,0,0,0l-2,11.9L355.3,313.9z"/>
			<polygon class="st10" points="348.7,352.2 348.2,352 344.6,373.3 345.6,372.9 349.2,352.2 			"/>
			<polygon class="st10" points="354.7,314.7 352.4,327.7 352.9,328 353.4,327.9 355.7,314.9 355.1,315.1 			"/>
			<path class="st10" d="M318.2,306.5l-16.8-4.6c-0.1,0.3-0.1,0.7-0.2,1l17.3,4.7L318.2,306.5z"/>
			<path class="st10" d="M319.4,307.3l13.8-12.7c-0.2-0.3-0.4-0.5-0.6-0.8l-13.4,12.3L319.4,307.3z"/>
			<polygon class="st10" points="319.4,307.3 319.1,306.2 318.7,306.6 318.2,306.5 318.4,307.6 319,307.7 			"/>
			<path class="st10" d="M321.9,321.9l-21.8-2.9c0,0.3,0,0.7,0.1,1l22,3L321.9,321.9z"/>
			<path class="st10" d="M323.1,322.7l15.8-16.4c-0.1-0.4-0.2-0.7-0.4-1.1l-15.7,16.4L323.1,322.7z"/>
			<polygon class="st10" points="323.1,322.7 322.9,321.5 322.4,322 321.9,321.9 322.2,323 322.8,323 			"/>
			<polygon class="st10" points="326.8,337.9 341,325.7 341,324.4 326.6,336.8 			"/>
			<path class="st10" d="M325.6,337.2l-23.3-1.4c0.1,0.3,0.1,0.7,0.2,1l23.4,1.4L325.6,337.2z"/>
			<polygon class="st10" points="326.8,337.9 326.6,336.8 326.1,337.2 325.6,337.2 325.9,338.2 326.4,338.2 			"/>
			<path class="st10" d="M341.3,348.6l0.4-0.9l0.3,0.1v-11.9l-0.7-0.4l0.5-0.9l0.3,0.1v-13.6l-0.8-0.6l0.6-0.8l0.2,0.2v-3.4
				c-0.1,0.7-0.2,1.4-0.3,2.2c-0.2-1.3-0.4-2.7-0.7-4v9.8l0.2-0.1l0.7,0.8l-0.8,0.7v13.4l0.2-0.1l0.7,0.8l-0.8,0.7v14.8l0.2-0.1
				l0.7,0.8l-0.8,0.7v17.8l1-0.3v-25.1L341.3,348.6z"/>
			<polygon class="st10" points="341.9,325 341.2,324.3 341,324.4 341,325.7 			"/>
			<path class="st10" d="M355.9,313.7l-0.2,1.2l9.3-3.8c-0.1-0.3-0.2-0.7-0.3-1L355.9,313.7z"/>
			<path class="st10" d="M354.9,313.5l-8.6-8.6c-0.2,0.3-0.4,0.5-0.6,0.8l8.9,9L354.9,313.5z"/>
			<polygon class="st10" points="354.9,313.5 354.7,314.7 355.1,315.1 355.7,314.9 355.9,313.7 355.3,313.9 			"/>
			<path class="st10" d="M353.2,329l12.1-2.5c0-0.4,0.1-0.7,0.1-1l-12,2.5L353.2,329z"/>
			<polygon class="st10" points="352.4,327.7 342,319.9 342,321.1 352.3,328.8 			"/>
			<polygon class="st10" points="352.4,327.7 352.3,328.8 352.7,329.1 353.2,329 353.4,327.9 352.9,328 			"/>
			<polygon class="st10" points="341.8,319.7 341.2,320.5 342,321.1 342,319.9 			"/>
			<polygon class="st10" points="350.4,339.4 342,334.8 342,335.9 350.2,340.5 			"/>
			<path class="st10" d="M351.2,340.7l11.7-1.6c0.1-0.3,0.2-0.7,0.3-1l-11.7,1.6L351.2,340.7z"/>
			<polygon class="st10" points="350.4,339.4 350.2,340.5 350.7,340.7 351.2,340.7 351.4,339.6 350.9,339.7 			"/>
			<polygon class="st10" points="341.8,334.6 341.3,335.5 342,335.9 342,334.8 			"/>
			<path class="st10" d="M349.2,352.2l10.3-1.3c0.1-0.3,0.2-0.7,0.3-1.1l-10.5,1.3L349.2,352.2z"/>
			<polygon class="st10" points="342,347.8 342,348.9 348.2,352 348.4,351 			"/>
			<polygon class="st10" points="348.4,351 348.2,352 348.7,352.2 349.2,352.2 349.4,351.1 348.9,351.2 			"/>
			<polygon class="st10" points="341.8,347.7 341.3,348.6 342,348.9 342,347.8 			"/>
			<path class="st10" d="M328.6,349.5l-22.4,0.9c0.1,0.3,0.2,0.7,0.3,1l22.3-0.9L328.6,349.5z"/>
			<polygon class="st10" points="329.8,350.1 341,340.4 341,339.1 329.5,349 			"/>
			<polygon class="st10" points="329.8,350.1 329.5,349 329,349.4 328.6,349.5 328.8,350.4 329.4,350.4 			"/>
			<polygon class="st10" points="341.9,339.7 341.2,339 341,339.1 341,340.4 			"/>
			<polygon class="st10" points="333.1,363.6 341,356.6 341,355.3 332.8,362.5 			"/>
			<path class="st10" d="M331.9,363l-20.3,0.8c0.2,0.3,0.3,0.7,0.5,1l20-0.8L331.9,363z"/>
			<polygon class="st10" points="332.3,362.9 331.9,363 332.1,364 332.7,363.9 333.1,363.6 332.8,362.5 			"/>
			<polygon class="st10" points="341.9,355.9 341.2,355.1 341,355.3 341,356.6 			"/>
		</g>
		<path class="st11" d="M409.1,399.4c0,0-7-47.6-49.7-54.9c-42.6-7.3-37.5-67.6-95.7-65.2c-58.3,2.4-46.3,58.4-69.4,71
			c-23.2,12.6-33.9,49-33.9,49H409.1z"/>
		<path class="st11" d="M401.9,399.4c0,0,0-38.6,45.7-52.2c45.7-13.6,34.8-84.3,92-73.5c57.2,10.9,29.4,83.3,51.7,99.1
			c22.3,15.8,17.4,26.6,17.4,26.6H401.9z"/>
		<g>
			<path class="st12" d="M177.9,399.6l1.7,0l-31.3-112.3C138.5,291.3,177.9,399.6,177.9,399.6z"/>
			<path class="st12" d="M189.2,399.8l29.9-85.4c-7.7-0.4-17.7,33-22.4,50.3c-1.6,6.3-2.6,10.1-2.6,10.1s1-4.1,2.6-10.1
				c6.3-25,21.1-88.2,12.2-94.1l-23.3,129.2L189.2,399.8z"/>
			<path class="st12" d="M181.9,399.7l-2.7-152.6c-10.8,7.3-1.4,132.5-1.4,132.5s-18.3-89.9-28.6-92.3l31.4,112.4L181.9,399.7z"/>
			<path class="st12" d="M196.7,364.7c-1.6,6-2.6,10.1-2.6,10.1S195.1,371,196.7,364.7z"/>
			<path class="st12" d="M184.6,399.7L208,270.2c-12.2-2.1-23.4,109.4-23.4,109.4s8.1-132.8-4.3-132.8c0,0,0,0,0,0l2.7,152.9
				L184.6,399.7z"/>
			<path class="st12" d="M193.6,399.9c0,0,37.2-79.5,26.7-85.1c-0.1,0-0.1-0.1-0.2-0.1l-29.8,85.2L193.6,399.9z"/>
			<path class="st13" d="M180.7,399.7l-31.4-112.4c-0.3-0.1-0.6-0.1-1,0c0,0,0,0-0.1,0l31.3,112.3L180.7,399.7z"/>
			<path class="st13" d="M182.9,399.7l-2.7-152.9c-0.3,0-0.7,0.1-1,0.3l2.7,152.6L182.9,399.7z"/>
			<path class="st13" d="M185.6,399.7l23.3-129.2c-0.2-0.1-0.3-0.2-0.5-0.3c-0.1-0.1-0.3-0.1-0.4-0.1l-23.4,129.5L185.6,399.7z"/>
			<path class="st13" d="M190.3,399.8l29.8-85.2c-0.3-0.1-0.6-0.2-1-0.2l-29.9,85.4L190.3,399.8z"/>
		</g>
		<g>
			<path class="st12" d="M584.4,399.7l23.4-129.5c-12.2-2.1-23.4,109.4-23.4,109.4s8.1-132.8-4.3-132.8c0,0,0,0,0,0l2.7,152.9
				L584.4,399.7z"/>
			<path class="st12" d="M589.1,399.8l29.9-85.4c-7.7-0.4-17.7,33-22.4,50.3c-1.6,6.3-2.6,10.1-2.6,10.1s1-4.1,2.6-10.1
				c6.3-25,21.1-88.2,12.2-94.1l-23.3,129.2L589.1,399.8z"/>
			<path class="st12" d="M596.5,364.7c-1.6,6-2.6,10.1-2.6,10.1S594.9,371,596.5,364.7z"/>
			<path class="st12" d="M593.4,399.9c0,0,37.2-79.5,26.7-85.1c-0.1,0-0.1-0.1-0.2-0.1l-29.8,85.2L593.4,399.9z"/>
			<path class="st12" d="M577.7,399.6l1.7,0l-31.3-112.3C538.3,291.3,577.7,399.6,577.7,399.6z"/>
			<path class="st12" d="M581.7,399.7l-2.7-152.6c-10.8,7.3-1.4,132.5-1.4,132.5s-18.3-89.9-28.6-92.3l31.4,112.4L581.7,399.7z"/>
			<path class="st13" d="M580.5,399.7l-31.4-112.4c-0.3-0.1-0.6-0.1-1,0c0,0,0,0-0.1,0l31.3,112.3L580.5,399.7z"/>
			<path class="st13" d="M582.7,399.7l-2.7-152.9c-0.3,0-0.7,0.1-1,0.3l2.7,152.6L582.7,399.7z"/>
			<path class="st13" d="M585.4,399.7l23.3-129.2c-0.2-0.1-0.3-0.2-0.5-0.3c-0.1-0.1-0.3-0.1-0.4-0.1l-23.4,129.5L585.4,399.7z"/>
			<path class="st13" d="M590.1,399.8l29.8-85.2c-0.3-0.1-0.6-0.2-1-0.2l-29.9,85.4L590.1,399.8z"/>
		</g>
		<g>
			<path class="st14" d="M214.8,297l24.2,101.8l1.9,0l5.9-29.9C247.1,356.8,245.1,321.9,214.8,297z"/>
			<path class="st14" d="M214.4,399l10.7-0.1l-44.3-50C191.9,388.4,214.4,399,214.4,399z"/>
			<path class="st14" d="M181,347.7l45.4,51.2l2.8,0l-14-28.7C209.9,362,198.8,349,181,347.7z"/>
			<path class="st14" d="M215.4,368.3l14.9,30.6l7.6-0.1l-24-101C202.9,325.5,210.4,354.5,215.4,368.3z"/>
			<path class="st14" d="M258.6,398.6c0,0,34.1-13.2,34.7-65.2l-45.1,65.3L258.6,398.6z"/>
			<path class="st14" d="M247.7,369.7l-5.8,29l5.1,0l45.9-66.5C260.5,345.8,250.5,362.6,247.7,369.7z"/>
			<path class="st15" d="M180.4,347.6c0.1,0.4,0.2,0.9,0.4,1.3l44.3,50l1.3,0L181,347.7C180.8,347.7,180.6,347.7,180.4,347.6z"/>
			<path class="st15" d="M214.4,296.7c-0.2,0.4-0.3,0.7-0.4,1.1l24,101l1,0L214.8,297C214.6,296.9,214.5,296.8,214.4,296.7z"/>
			<path class="st15" d="M292.9,332.2L247,398.7l1.2,0l45.1-65.3c0-0.5,0-0.9,0-1.4C293.2,332.1,293.1,332.2,292.9,332.2z"/>
			<path class="st10" d="M218.4,375.8c0.2,0.5,0.3,0.7,0.3,0.7S218.7,376.2,218.4,375.8z"/>
			<path class="st10" d="M218.4,375.8c0.2,0.5,0.3,0.7,0.3,0.7S218.6,376.2,218.4,375.8c-0.5-1-1.6-3.1-3.2-5.7l14,28.7l1.1,0
				l-14.9-30.6C216.7,372,217.9,374.6,218.4,375.8z"/>
			<path class="st10" d="M246.5,373.2c0,0,0.2-1.6,0.3-4.3l-5.9,29.9l1,0l5.8-29C246.8,371.9,246.5,373.2,246.5,373.2z"/>
		</g>
		<g>
			<path class="st6" d="M539.8,376.9l5.3,23.4h2.6l15.5-105.1C536.1,322.6,537.4,359.9,539.8,376.9z"/>
			<path class="st6" d="M503.2,328.8l39.6,71.5h1.2l-5.9-25.8C533.6,361.1,523.3,339.5,503.2,328.8z"/>
			<path class="st6" d="M535.8,400.4h5.9l-39.3-70.9C502.8,384.3,535.8,400.4,535.8,400.4z"/>
			<path class="st6" d="M566.7,400.4c0,0,27-12.6,39.3-54.4l-43.7,54.4H566.7z"/>
			<path class="st6" d="M567.4,378.4l-8.2,21.9h1.9l44.8-55.8C584.6,351.2,572.8,367.9,567.4,378.4z"/>
			<path class="st6" d="M564,296.4l-15.3,103.9h9.4l8.2-22C570.8,362.2,577.7,327.2,564,296.4z"/>
			<path class="st10" d="M502.4,328.4c0,0.3,0,0.7,0,1l39.3,70.9h1.1l-39.6-71.5C503,328.7,502.7,328.5,502.4,328.4z"/>
			<path class="st10" d="M563.4,295c-0.1,0.1-0.1,0.1-0.2,0.2l-15.5,105.1h1L564,296.4C563.8,296,563.6,295.5,563.4,295z"/>
			<path class="st10" d="M605.9,344.6L561,400.4h1.3l43.7-54.4c0.2-0.5,0.3-1,0.5-1.5C606.3,344.4,606.1,344.5,605.9,344.6z"/>
			<path class="st10" d="M540.9,383.6c0.4,1.6,0.6,2.5,0.6,2.5S541.3,385.2,540.9,383.6c-0.5-2-1.4-5.2-2.7-9.1l5.9,25.8h1
				l-5.3-23.4C540.2,379.8,540.6,382,540.9,383.6z"/>
			<path class="st10" d="M540.9,383.6c0.3,1.6,0.6,2.5,0.6,2.5S541.3,385.2,540.9,383.6z"/>
			<path class="st10" d="M564,385.7c-0.4,1.1-0.6,1.8-0.6,1.8S563.6,386.8,564,385.7c0.5-1.5,1.4-4,2.3-7.3l-8.2,22h1.1l8.2-21.9
				C565.7,381.6,564.6,384.1,564,385.7z"/>
			<path class="st10" d="M564,385.7c-0.4,1.1-0.6,1.8-0.6,1.8S563.6,386.9,564,385.7z"/>
		</g>
		<path class="st16" d="M387.3,371c-169.1,0-240.2,27.9-240.2,27.9s71.2,11.7,240.2,11.7s240.2-11.7,240.2-11.7S556.4,371,387.3,371
			z"/>
		<g>
			<g>
				<polygon class="st9" points="477.7,303.4 471.9,394.7 477.8,394.7 493.1,318.2 502.1,394.7 507.6,394.7 508,303.4 				"/>
			</g>
			<g>
				<polygon class="st17" points="443.6,276.3 443.6,277 439.7,309.1 514.8,309.1 507.5,277.4 495.6,238.4 468,243.4 467.4,243.5 
					466.9,243.4 430.3,235.7 443.4,275.7 				"/>
				<path class="st4" d="M518.5,312.1l-8.1-35.5L497.7,235l-30.2,5.4l-41.6-8.7l14.7,44.9l-4.3,35.5H518.5z M466.9,243.4l0.6,0.1
					l0.6-0.1l27.6-5l11.9,39l7.2,31.7h-75.1l3.9-32.2l0.1-0.7l-0.2-0.6l-13.1-40L466.9,243.4z"/>
			</g>
			<path class="st18" d="M493.1,261.3L493.1,261.3c-2.6,0-4.7-2.1-4.7-4.7v-7.8h9.4v7.8C497.7,259.2,495.6,261.3,493.1,261.3z"/>
			<polygon class="st19" points="509.2,272.6 473.3,274.8 440.6,276.6 436.3,312.1 518.5,312.1 			"/>
			<g>
				<g>
					<g>
						<g>
							<path class="st4" d="M465.1,249c-0.9,0-1.8,0.8-2.7,1.9h5.5C466.9,249.8,466,249,465.1,249z"/>
						</g>
						<g>
							<path class="st12" d="M471.5,257.3c0,0-1.7-3.9-3.7-6.4h-5.5c-2,2.4-3.7,6.4-3.7,6.4H471.5z"/>
						</g>
					</g>
					<g>
						<g>
							<path class="st4" d="M458.3,251.8c-0.6,0-1.2,0.5-1.8,1.3h3.7C459.6,252.3,458.9,251.8,458.3,251.8z"/>
						</g>
						<g>
							<path class="st12" d="M462.6,257.3c0,0-1.2-2.6-2.5-4.3h-3.7c-1.3,1.6-2.5,4.3-2.5,4.3H462.6z"/>
						</g>
					</g>
					<g>
						<g>
							<path class="st4" d="M471.9,251.8c-0.6,0-1.2,0.5-1.8,1.3h3.7C473.1,252.3,472.5,251.8,471.9,251.8z"/>
						</g>
						<g>
							<path class="st12" d="M476.2,257.3c0,0-1.2-2.6-2.5-4.3h-3.7c-1.3,1.6-2.5,4.3-2.5,4.3H476.2z"/>
						</g>
					</g>
				</g>
				<path class="st9" d="M473.1,261.8c-2.5,1.3-4.5,3.3-5.9,6.1c-15.5-9.6-28.3-7.7-28.8-7.6l0.6,1.8c0.1,0,12.5-2.2,27.6,7.2
					c-0.4,0.9-0.8,1.9-1.1,3c-3.8,12.9-22.8,14.5-23,14.5l-0.2,1.5c0.7-0.1,13.8-1.2,20.9-9c2.5,1.9,12.9,11.3,6.5,29.9h1.6
					c6.6-19-4.2-28.8-7.1-31c1.2-1.6,2.2-3.4,2.8-5.5c1.4-4.7,3.7-7.9,6.9-9.6c4.6-2.4,11.4-1.9,21.2,1.5l0.5-1.4
					C485.3,259.6,478.2,259.2,473.1,261.8z"/>
				<g>
					<g>
						<path class="st11" d="M441.1,297.1c0,0,6.1-6.1,12.6-1.9c6.5,4.2,8.2,1.3,11.1,4.2c3.9,3.9,0.3,9.8,0.3,9.8h-25.4L441.1,297.1
							z"/>
					</g>
				</g>
			</g>
			<polygon class="st20" points="467.5,240.5 473.7,277.1 477.7,312.1 436.3,312.1 440.6,276.6 425.9,231.7 			"/>
			<path class="st18" d="M496.3,267l9.4,19.2c0.6,1.3,1.8,2.2,3.2,2.6l0,0c3.1,0.7,6.1-1.9,5.8-5.1c-1.1-9.7-9.6-22.9-9.6-22.9
				L496.3,267z"/>
			<g>
				<g>
					<path class="st21" d="M477,302.5c0,0,0-0.2-0.1-0.5"/>
					<path class="st22" d="M476.7,301c-0.8-2.9-3.8-9-14.1-9.9c-8.8-0.8-13.1-7.3-6.1-17.5c6.7-9.8,9.1-7.9,9.3-16.1"/>
					<path class="st21" d="M465.8,257c0-0.2,0-0.3,0-0.5"/>
				</g>
			</g>
			<path class="st9" d="M463.5,257.9c0,1.2,1,2.2,2.2,2.2c1.2,0,2.2-1,2.2-2.2c0-1.2-1-2.2-2.2-2.2
				C464.5,255.7,463.5,256.7,463.5,257.9z"/>
			<path class="st18" d="M489.4,230.6c0,0-6.9,1.3-6.9,12.5c0,11.2,6.1,10.9,10.5,8.1c4.4-2.8,6.4-9.7,3.4-16.2
				C493.3,228.6,489.4,230.6,489.4,230.6z"/>
			<path class="st12" d="M492.4,255c0,0-10.5-0.7-12.4,11.1c-1.5,9.6,1.7,13.5,1.4,21.6c-0.1,3.9-3.7,11-3.7,15.7
				c10.6,0,30.3,0,30.3,0s-0.8-4.9-3.3-15.7c-0.6-2.8,0.8-6.2,1.9-9.9C512,260.1,500.7,255,492.4,255z"/>
			<path class="st9" d="M489,241.6c0,0-7.2,0.7-8-7.8c-0.8-8.5,10.3-11.1,17.1-4.2c1.9-6.4,11.6-4.7,9.8,4.1c4,5.8-0.3,7.4-2.5,7.4
				c0,9.1-5.9,12.4-10.9,10.8C489.5,250.3,489,241.6,489,241.6z"/>
			<path class="st18" d="M480.4,263.5l-10.5,17.7l-23-3.3l-0.6,3.4c0,0,13.3,8.4,26,7c7.2-0.8,13.9-13.7,16.8-20.2
				c1-2.2,0.3-4.7-1.7-6.1l0,0C485.1,260.4,481.8,261.1,480.4,263.5z"/>
			<path class="st18" d="M489,241.6c0,0,2.5-0.3,2.5,2.3c0,2.6-3.2,2.9-3.2,2.9L489,241.6z"/>
			<path class="st23" d="M478.3,299.4c0,0-5.7,11.4-5.7,30.1c7.9,3.8,18.9,2.8,18.9,2.8l1.5-9.9l0.9,10c0,0,9.9,2.4,18.5-2.6
				c0.5-19-5.2-30.4-5.2-30.4S496.4,303.2,478.3,299.4z"/>
			<path class="st23" d="M470.8,395.8v-12.7h11.3l-2.3,15.8h-16.8C463.1,398.9,464.8,395.8,470.8,395.8z"/>
			<path class="st23" d="M510.8,395.8v-12.7h-11.3l2.2,15.8h16.8C518.5,398.9,516.8,395.8,510.8,395.8z"/>
			<g>
				<path class="st24" d="M494.5,259c0,0-9,15.8-9,33.3c0,17.5,36.4,17.2,36.4,0c0-17.2-6.9-33.3-6.9-33.3H494.5z"/>
				<path class="st6" d="M491.4,266h23.8c3.4,0,6.2-2.8,6.2-6.2l0,0c0-3.4-2.8-6.2-6.2-6.2h-23.5c-2.9,0-5.3,2.4-5.3,5.3v2.1
					C486.4,263.7,488.6,266,491.4,266z"/>
				<path class="st6" d="M486.4,282.2c0,0-8,16.8,3.7,16.8c11.7,0,6.5-16.8,6.5-16.8H486.4z"/>
				<path class="st6" d="M503.8,282.2c0,0-7.2,16.8,5.7,16.8c12.9,0,15.2-0.6,15.2-8.2c0-7.7-3.3-8.6-3.3-8.6H503.8z"/>
				<path class="st25" d="M486,259.8c0,3.4,2.1,6.1,4.6,6.1c2.5,0,4.6-2.7,4.6-6.1s-2.1-6.1-4.6-6.1
					C488.1,253.7,486,256.4,486,259.8z"/>
				<path class="st24" d="M497.8,253.6c0,0,5.6,6.7,0,12.4c2.9,0,2.9,0,2.9,0s5.9-6.2-0.2-12.4"/>
				<path class="st24" d="M511.4,253.6c0,0,5.6,6.7,0,12.4c2.9,0,2.9,0,2.9,0s5.9-6.2-0.2-12.4"/>
			</g>
			<path class="st18" d="M448,278.3c0,0-3.3-4.2-4.1-3.9c-0.8,0.3,0.8,2.3,0.8,2.3s-4.6-0.7-5.3-0.7c-0.6,0-0.2,1.2,0.9,1.5
				c-1,1,0.2,3.4,3.6,3.6c3.4,0.3,4.3-0.3,4.3-0.3L448,278.3z"/>
		</g>
		<path class="st21" d="M498.3,230.5c0,0-2.5,4,2.3,6.2c-1.2,2.5,1.5,5.2,4.5,4.2"/>
	</g>
	<g>
		<text transform="matrix(1 0 0 1 222.1611 221.8054)" class="st9 st26 st27">404</text>
		<text transform="matrix(1 0 0 1 263.9153 124.8846)" class="st28 st29 st30">OOPS, LOOK LIKE YOU’RE LOST</text>
		<g>
			<text transform="matrix(0.874 0 0 1 258.0674 246.8273)" class="st6 st29 st31">PAGE NOT FOUND</text>
			<g class="st0">
				<path class="st32" d="M374.3,253.6h59.1c5.4,0,9.9-5.1,9.9-11.3l0,0c0-6.2-4.4-11.3-9.9-11.3h-59.1c-5.4,0-9.9,5.1-9.9,11.3l0,0
					C364.4,248.5,368.8,253.6,374.3,253.6z"/>
				<g class="st5">
					<text transform="matrix(0.874 0 0 1 371.2402 246.5929)" class="st4 st33 st34">TRY ANOTHER</text>
				</g>
			</g>
		</g>
	</g>
</g>
<g id="DESIGNED_BY_FREEPIK" class="st0">
	<g class="st5">
		<g id="XMLID_319_">
			<g id="XMLID_338_">
				<path id="XMLID_346_" class="st35" d="M385.1,473c-0.4,0.4-0.8,0.9-1.1,1.5l-0.5-0.2c-0.1-0.3-0.3-0.5-0.7-0.5
					c-0.3,0-0.6,0.3-0.5,0.7c0,0.3,0.3,0.6,0.7,0.5c0.1,0,0.1,0,0.2-0.1l0.5,0.2c-0.3,0.6-0.4,1.1-0.5,1.7l0.7,0.1
					c0.2-1.3,0.8-2.5,1.8-3.5L385.1,473z"/>
				<path id="XMLID_345_" class="st35" d="M390.6,470.7c-0.2,0-0.3,0-0.5,0l-0.1-0.6c0.2-0.1,0.3-0.4,0.3-0.6c0-0.4-0.4-0.7-0.8-0.6
					c-0.4,0-0.7,0.4-0.6,0.8c0,0.3,0.2,0.5,0.4,0.6l0.1,0.6c-0.7,0.1-1.4,0.3-2.1,0.6l0.3,0.7c0.9-0.4,1.9-0.7,3-0.7
					c0.5,0,1,0.1,1.5,0.2l0.2-0.7C391.7,470.8,391.1,470.7,390.6,470.7z"/>
				<path id="XMLID_344_" class="st35" d="M397.2,473.3c0.3,0,0.6-0.3,0.5-0.7c0-0.3-0.3-0.6-0.7-0.5c-0.3,0-0.5,0.3-0.5,0.6
					l-0.4,0.4c-0.4-0.4-0.9-0.8-1.4-1.1l-0.4,0.6c1.1,0.7,2,1.7,2.6,2.9l0.7-0.3c-0.3-0.6-0.6-1.1-0.9-1.5l0.4-0.4
					C397.1,473.3,397.1,473.3,397.2,473.3z"/>
				<path id="XMLID_343_" class="st35" d="M390,481c-0.4,0-0.8,0-1.2,0c-0.9,0-1.7-0.1-2.5-0.2c-0.4-0.1-0.8-0.2-1.3-0.3
					c1,1.9,3.1,3.1,5.4,3.1c2.9,0,5.3-1.9,5.9-4.5c-0.7,0.4-1.5,0.8-2.5,1.1C392.8,480.6,391.5,480.9,390,481z"/>
				<path id="XMLID_339_" class="st35" d="M390.6,472.3c-3.4,0-6.1,2.7-6.1,5.9c0,0.4,0,0.8,0.1,1.3c0.7,0.5,2.7,0.9,5.3,0.7
					c2.9-0.2,5.3-1,6.7-2.2c0-0.2,0-0.4,0-0.6C396.2,474.5,393.7,472.3,390.6,472.3z M388.4,478.8c-1,0-1.8-0.8-1.8-1.8
					c0-1,0.8-1.8,1.8-1.8c1,0,1.8,0.8,1.8,1.8C390.3,477.9,389.5,478.8,388.4,478.8z M393.2,477.9c-0.8,0-1.4-0.6-1.4-1.4
					s0.6-1.4,1.4-1.4c0.8,0,1.4,0.6,1.4,1.4S393.9,477.9,393.2,477.9z"/>
			</g>
			<path id="XMLID_336_" class="st35" d="M406.6,474.1c-0.3-0.1-0.8-0.3-1.4-0.2c-0.6,0.1-0.8,0.3-0.8,1v0.9h2.2v1.7h-2.2v5.5h-1.9
				v-5.5h-1.3v-1.7h1.3v-0.9c0-1.7,0.9-2.8,2.6-2.8c0.6,0,1.2,0.1,1.6,0.3L406.6,474.1z"/>
			<path id="XMLID_334_" class="st35" d="M411.3,477.5c-0.2,0-0.4,0-0.5,0c-0.9,0-1.5,0.5-1.5,1.6v3.9h-1.9v-7.2h1.9v0.8
				c0.5-0.7,1.1-1,2-1c0.4,0,0.8,0.1,1.1,0.3L411.3,477.5z"/>
			<path id="XMLID_331_" class="st35" d="M419,479.3c0,0.2,0,0.5,0,0.7h-5.1c0.2,1,0.9,1.5,1.8,1.5c0.6,0,1.3-0.3,1.8-0.7l1.1,1.2
				c-0.8,0.7-1.9,1.1-3.1,1.1c-2.2,0-3.7-1.5-3.7-3.8c0-2.3,1.5-3.8,3.6-3.8C417.5,475.6,419,477.1,419,479.3z M413.9,478.7h3.2
				c-0.2-0.9-0.7-1.4-1.6-1.4C414.6,477.2,414,477.8,413.9,478.7z"/>
			<path id="XMLID_328_" class="st35" d="M426.6,479.3c0,0.2,0,0.5,0,0.7h-5.1c0.2,1,0.9,1.5,1.8,1.5c0.6,0,1.3-0.3,1.8-0.7l1.1,1.2
				c-0.8,0.7-1.9,1.1-3.1,1.1c-2.2,0-3.7-1.5-3.7-3.8c0-2.3,1.5-3.8,3.6-3.8C425.2,475.6,426.6,477.1,426.6,479.3z M421.5,478.7h3.2
				c-0.2-0.9-0.7-1.4-1.6-1.4C422.2,477.2,421.7,477.8,421.5,478.7z"/>
			<path id="XMLID_325_" class="st35" d="M435,479.3c0,2.2-1.5,3.8-3.5,3.8c-1,0-1.6-0.4-2.1-0.9v3.7h-1.9v-10.1h1.9v0.8
				c0.5-0.6,1.2-1,2.1-1C433.5,475.6,435,477.2,435,479.3z M429.3,479.3c0,1.1,0.7,2,1.8,2c1.1,0,1.9-0.9,1.9-2c0-1.1-0.7-2-1.9-2
				C430,477.4,429.3,478.2,429.3,479.3z"/>
			<path id="XMLID_322_" class="st35" d="M438.1,473.4c0,0.7-0.5,1.2-1.2,1.2c-0.7,0-1.2-0.5-1.2-1.2c0-0.7,0.5-1.2,1.2-1.2
				C437.5,472.2,438.1,472.7,438.1,473.4z M437.8,482.9h-1.9v-7.2h1.9V482.9z"/>
			<path id="XMLID_320_" class="st35" d="M441,478.3l2.7-2.6h2.4l-3.5,3.4l3.5,3.8h-2.4L441,480v2.9h-1.9v-10.7h1.9V478.3z"/>
		</g>
		<g>
			<path class="st35" d="M309.4,482.9v-1.1c-0.5,0.7-1.4,1.2-2.4,1.2c-1.8,0-3.1-1.4-3.1-3.7c0-2.3,1.3-3.7,3.1-3.7
				c1,0,1.8,0.5,2.4,1.2v-3.8h1.1v9.8H309.4z M309.4,481v-3.2c-0.4-0.6-1.2-1.1-2.1-1.1c-1.4,0-2.3,1.2-2.3,2.7
				c0,1.6,0.8,2.7,2.3,2.7C308.2,482.1,309,481.6,309.4,481z"/>
			<path class="st35" d="M311.9,479.3c0-2.1,1.5-3.7,3.5-3.7c2.1,0,3.4,1.7,3.4,3.8v0.3h-5.7c0.1,1.3,1,2.4,2.5,2.4
				c0.8,0,1.6-0.3,2.2-0.9l0.5,0.7c-0.7,0.7-1.7,1.1-2.8,1.1C313.4,483,311.9,481.5,311.9,479.3z M315.4,476.5
				c-1.5,0-2.3,1.3-2.3,2.4h4.6C317.7,477.8,317,476.5,315.4,476.5z"/>
			<path class="st35" d="M319.6,481.9l0.6-0.8c0.5,0.5,1.4,1,2.3,1c1.1,0,1.7-0.5,1.7-1.2c0-1.7-4.4-0.7-4.4-3.3c0-1.1,1-2,2.6-2
				c1.2,0,2.1,0.5,2.6,1l-0.5,0.8c-0.4-0.5-1.2-0.9-2.1-0.9c-1,0-1.6,0.5-1.6,1.1c0,1.6,4.4,0.5,4.4,3.3c0,1.2-1,2.1-2.8,2.1
				C321.3,483,320.3,482.7,319.6,481.9z"/>
			<path class="st35" d="M326.5,474.1c0-0.4,0.3-0.7,0.7-0.7c0.4,0,0.7,0.3,0.7,0.7c0,0.4-0.3,0.7-0.7,0.7
				C326.8,474.8,326.5,474.5,326.5,474.1z M326.7,482.9v-7.1h1.1v7.1H326.7z"/>
			<path class="st35" d="M329.6,484.7l0.6-0.8c0.6,0.7,1.3,1,2.3,1c1.2,0,2.3-0.6,2.3-2.1v-1c-0.5,0.7-1.4,1.3-2.4,1.3
				c-1.8,0-3.1-1.4-3.1-3.7c0-2.3,1.3-3.7,3.1-3.7c1,0,1.8,0.5,2.4,1.2v-1.1h1.1v6.9c0,2.3-1.6,3.1-3.4,3.1
				C331.2,485.7,330.4,485.5,329.6,484.7z M334.7,480.8v-3.1c-0.4-0.6-1.2-1.1-2.1-1.1c-1.4,0-2.3,1.1-2.3,2.7
				c0,1.6,0.8,2.7,2.3,2.7C333.5,482,334.3,481.4,334.7,480.8z"/>
			<path class="st35" d="M342.4,482.9v-4.6c0-1.2-0.6-1.6-1.6-1.6c-0.9,0-1.7,0.5-2.1,1.1v5.2h-1.1v-7.1h1.1v1
				c0.5-0.6,1.5-1.2,2.5-1.2c1.5,0,2.3,0.7,2.3,2.3v5H342.4z"/>
			<path class="st35" d="M344.9,479.3c0-2.1,1.5-3.7,3.5-3.7c2.1,0,3.4,1.7,3.4,3.8v0.3h-5.7c0.1,1.3,1,2.4,2.5,2.4
				c0.8,0,1.6-0.3,2.2-0.9l0.5,0.7c-0.7,0.7-1.7,1.1-2.8,1.1C346.4,483,344.9,481.5,344.9,479.3z M348.4,476.5
				c-1.5,0-2.3,1.3-2.3,2.4h4.6C350.7,477.8,350,476.5,348.4,476.5z"/>
			<path class="st35" d="M358.3,482.9v-1.1c-0.5,0.7-1.4,1.2-2.4,1.2c-1.8,0-3.1-1.4-3.1-3.7c0-2.3,1.3-3.7,3.1-3.7
				c1,0,1.8,0.5,2.4,1.2v-3.8h1.1v9.8H358.3z M358.3,481v-3.2c-0.4-0.6-1.2-1.1-2.1-1.1c-1.4,0-2.3,1.2-2.3,2.7
				c0,1.6,0.8,2.7,2.3,2.7C357.1,482.1,358,481.6,358.3,481z"/>
			<path class="st35" d="M364.7,482.9v-9.8h1.1v3.8c0.6-0.8,1.4-1.2,2.4-1.2c1.8,0,3.1,1.5,3.1,3.7c0,2.3-1.3,3.7-3.1,3.7
				c-1,0-1.9-0.5-2.4-1.2v1.1H364.7z M367.9,482.1c1.4,0,2.3-1.2,2.3-2.7c0-1.6-0.8-2.7-2.3-2.7c-0.9,0-1.7,0.5-2.1,1.1v3.2
				C366.2,481.6,367,482.1,367.9,482.1z"/>
			<path class="st35" d="M372.5,484.6c0.2,0.1,0.4,0.1,0.6,0.1c0.5,0,0.8-0.2,1.1-0.7l0.5-1.1l-3-7.1h1.2l2.4,5.8l2.3-5.8h1.2
				l-3.5,8.5c-0.4,1-1.1,1.4-2.1,1.4c-0.2,0-0.6,0-0.8-0.1L372.5,484.6z"/>
		</g>
	</g>
</g>
</svg>
