<?xml version="1.0" encoding="utf-8"?>
<!-- Generator: Adobe Illustrator 24.2.0, SVG Export Plug-In . SVG Version: 6.00 Build 0)  -->
<svg version="1.1" id="_x3C_Layer_x3E_" xmlns="http://www.w3.org/2000/svg" xmlns:xlink="http://www.w3.org/1999/xlink" x="0px"
	 y="0px" viewBox="0 0 2760 1840" style="enable-background:new 0 0 2760 1840;" xml:space="preserve">
<style type="text/css">
	.st0{display:none;}
	.st1{display:inline;fill:#DEEBE9;}
	.st2{fill:#2F1A31;}
	.st3{fill:#56335B;}
	.st4{fill:#CFD3A3;}
	.st5{fill:#B2C9C6;}
	.st6{fill:#BED5DC;}
	.st7{fill:#74A1BD;}
	.st8{opacity:0.4;}
	.st9{opacity:0.5;}
	.st10{fill:#9BBCB6;}
	.st11{fill:#C4C695;}
	.st12{fill:#6F4975;}
	.st13{fill:#E7F2F0;}
	.st14{fill:#E28569;}
	.st15{fill:#96B4E0;}
	.st16{fill:#7CA1CE;}
	.st17{fill:#F7B686;}
	.st18{fill:#DB6B49;}
	.st19{fill:#FFFFFF;}
	.st20{fill:#060633;}
	.st21{opacity:0.3;}
	.st22{fill:#020202;}
	.st23{fill:#E6EDFF;}
	.st24{fill:#436E8E;}
	.st25{fill:#D3745E;}
</style>
<g>
	<g class="st0">
		<path class="st1" d="M2259.7,1692.9c-199.2,25.2-404.4,14.7-823.7-11.7c-235.5-14.8-708.9,9.7-945.2,11.7
			c-172.3,1.4-312-128.4-312-286.7v-483V418.6c0-158.4,140-296.1,312-286.7c159.7,8.7,394.6,42.9,639.5,21.9
			c291.3-24.9,844.1-46.1,1129.4-21.9c171.6,14.6,311.9,128.4,311.9,286.7v987.6C2571.7,1564.5,2430.4,1671.3,2259.7,1692.9z"/>
	</g>
	<g>
		<g>
			<rect x="1361.7" y="384" class="st2" width="23.7" height="34"/>
		</g>
		<g>
			<path class="st2" d="M1414.6,366.7c0-22-17.9-39.9-39.9-39.9c-22,0-39.9,17.9-39.9,39.9s17.9,39.9,39.9,39.9
				C1396.8,406.6,1414.6,388.8,1414.6,366.7z"/>
		</g>
		<g>
			<path class="st3" d="M1394.7,366.7c0-13.9-11.3-25.1-25.1-25.1c-13.9,0-25.1,11.3-25.1,25.1s11.2,25.1,25.1,25.1
				C1383.4,391.8,1394.7,380.6,1394.7,366.7z"/>
		</g>
		<g>
			<path class="st4" d="M1385.3,357.6c0-4.6-3.8-8.4-8.4-8.4s-8.4,3.8-8.4,8.4c0,4.6,3.8,8.4,8.4,8.4S1385.3,362.2,1385.3,357.6z"/>
		</g>
	</g>
	<g>
		<g>
			<g>
				<path class="st5" d="M665.6,390.7c-11.9,11.7-19.2,11.4-23.8,6.8c-4.6-4.7-4.8-11.9,7.1-23.6c21.7-21.3,40.5-23.2,40.5-23.2
					S687.6,369.1,665.6,390.7z"/>
			</g>
			<g>
				<path class="st5" d="M691.4,495.8c-7.5,14.9-14.4,17-20.3,14.1c-5.9-2.9-8.4-9.7-0.9-24.7c13.6-27.2,30.8-35.1,30.8-35.1
					S705.2,468.2,691.4,495.8z"/>
			</g>
			<g>
				<g>
					<g>
						<path class="st5" d="M753.7,770.6l-3.1,0.5c-0.1-0.5-8.2-48.9-41.6-114.3c-30.8-60.4-90.2-148-197.7-222.8l1.8-2.6
							c108.1,75.2,167.8,163.3,198.8,224.1C745.5,721.3,753.6,770.1,753.7,770.6z"/>
					</g>
				</g>
				<g>
					<g>
						<path class="st5" d="M625.7,531.6l-3-1c36.4-108.9-28.4-213.6-29.1-214.6l2.7-1.7C596.9,315.4,662.6,421.3,625.7,531.6z"/>
					</g>
				</g>
				<g>
					<g>
						<path class="st5" d="M567,493.5c-31.1,7.8-58.6-1.8-58.9-1.9l1.1-3c0.3,0.1,35.5,12.5,70.8-2.8l1.3,2.9
							C576.4,490.7,571.7,492.3,567,493.5z"/>
					</g>
				</g>
				<g>
					<g>
						<path class="st5" d="M731.1,702.8c-64.8,8.7-123.5-9.2-174.6-53.1c-1.8-1.5-3.4-3-3.9-3.2c0,0,0.1,0.1,0.4,0.1l0.2-3.2
							c0.9,0.1,1.7,0.7,5.4,3.8c50.4,43.3,108.3,60.9,172.1,52.3L731.1,702.8z"/>
					</g>
				</g>
				<g>
					<g>
						<path class="st5" d="M633.8,692.2l-3.2-0.1c0.8-42.9-40.9-95.2-41.3-95.7l2.5-2c0.1,0.1,10.8,13.5,21.3,32.1
							C622.7,643.8,634.2,669.2,633.8,692.2z"/>
					</g>
				</g>
				<g>
					<g>
						<path class="st5" d="M504.9,417.4c19.9,10.5,23.3,18.4,20.3,24.2c-3.1,5.8-11.5,7.3-31.4-3.2c-36.2-19.2-48.2-39-48.2-39
							S468.1,397.9,504.9,417.4z"/>
					</g>
				</g>
				<g>
					<g>
						<path class="st5" d="M513.8,479.6c22.2,4.1,27.8,10.5,26.6,16.9c-1.2,6.4-8.7,10.5-30.9,6.4c-40.4-7.4-57.7-22.6-57.7-22.6
							S472.9,472.1,513.8,479.6z"/>
					</g>
				</g>
				<g>
					<g>
						<path class="st5" d="M595.9,584.2c11,12.5,10.3,19.8,5.4,24.1c-4.9,4.3-12.2,4.1-23.2-8.4c-20.1-22.8-20.9-41.7-20.9-41.7
							S575.5,561,595.9,584.2z"/>
					</g>
				</g>
				<g>
					<g>
						<path class="st5" d="M586,436.8c7.7,14.8,5.2,21.7-0.6,24.7c-5.8,3-12.8,1-20.5-13.8c-14-27-10.2-45.5-10.2-45.5
							S571.9,409.4,586,436.8z"/>
					</g>
				</g>
				<g>
					<g>
						<path class="st5" d="M670.2,665.8c3.2,16.4-1.1,22.3-7.5,23.5c-6.4,1.2-12.6-2.6-15.8-19c-5.8-29.9,3-46.6,3-46.6
							S664.3,635.5,670.2,665.8z"/>
					</g>
				</g>
				<g>
					<g>
						<path class="st5" d="M569.6,643.5c13.5,9.9,14.3,17.1,10.5,22.4c-3.9,5.3-11,6.6-24.5-3.3c-24.5-18-29.4-36.2-29.4-36.2
							S544.8,625.3,569.6,643.5z"/>
					</g>
				</g>
				<g>
					<g>
						<path class="st5" d="M599.6,300.3c10.4,20,8.8,28.4,3,31.4c-5.8,3-13.6-0.4-24-20.4c-19-36.4-17.7-59.4-17.7-59.4
							S580.3,263.4,599.6,300.3z"/>
					</g>
				</g>
			</g>
		</g>
	</g>
	<g>
		<ellipse class="st6" cx="1383.3" cy="1456.9" rx="922.2" ry="116.2"/>
	</g>
	<g>
		<g>
			<path class="st5" d="M1805.2,998.6c0,0,297-373.3,417.2-284.2c120.2,89.1-266.5,203.5-348.7,315L1805.2,998.6z"/>
		</g>
		<g>
			<g>
				<path class="st7" d="M1840.8,1014.3c30.8-43.3,91.4-110.6,205.8-184.9c68.4-44.4,124.3-70.7,124.9-70.9l1,2.2
					c-0.6,0.3-56.4,26.4-124.6,70.8c-114,74.1-174.4,141.1-205.1,184.2L1840.8,1014.3z"/>
			</g>
		</g>
	</g>
	<g class="st8">
		<g>
			<path class="st5" d="M1697.5,543.3c0,0,215.5-357.4,329.8-293.7c114.3,63.7-208.1,206.6-266.9,312.7L1697.5,543.3z"/>
		</g>
		<g>
			<g>
				<path class="st7" d="M1730.2,552.9c21.8-41.1,66.8-106.2,157.6-183.6c54.3-46.3,99.8-75.4,100.3-75.6l1.2,1.8
					c-0.5,0.3-45.9,29.3-100.1,75.5c-90.5,77.2-135.4,142.1-157.1,183L1730.2,552.9z"/>
			</g>
		</g>
	</g>
	<g class="st9">
		<g>
			<path class="st5" d="M1758.3,571.7c0,0,413.9-361.7,531.7-235.9c117.8,125.8-344.1,175.6-460.4,285L1758.3,571.7z"/>
		</g>
		<g>
			<g>
				<path class="st7" d="M1795.4,596.9c43.8-42.8,126.5-106.4,271.5-167.1c86.7-36.2,155.5-54.4,156.2-54.6l0.7,2.8
					c-0.7,0.2-69.4,18.3-155.9,54.5C1923.3,493,1841,556.4,1797.4,599L1795.4,596.9z"/>
			</g>
		</g>
	</g>
	<g>
		<g>
			<g>
				<path class="st5" d="M2092.6,1427c-75.9-34.1-138,73.1-199.1-0.3c-56.6-68.1-52.4-73.2-99.1-68.8c-6.9,0.6-13.7,2.5-19.9,5.6
					c-13.3,6.5-40.7,16.2-62.6,0c-94.1-69.9-7-126.6-36.1-245.9c-8.1-33.4-14.8-65.6-19.7-95.3c16.9-11.8,46-26.1,83.5-21
					c13.8,1.9,28.7,6.4,44.5,14.7c86,44.8,83.9,97.9,211.6,51.7c127.7-46.1,114.2,144.9,169.2,178.4c55.1,33.5,112.1,51.6,112,136
					C2276.9,1466.6,2168.5,1461.1,2092.6,1427z"/>
			</g>
		</g>
		<g class="st8">
			<g>
				<g>
					<path class="st7" d="M1684.1,1154.7l0.2-5.5c2.4,0.1,245.1,13.1,590.4,255.3l-3.1,4.5
						C1927.6,1167.7,1686.5,1154.8,1684.1,1154.7z"/>
				</g>
			</g>
			<g>
				<g>
					<path class="st7" d="M1991.9,1179.3c-15.1-73.3,0.6-111.1,1.3-112.7l5,2.2c-0.2,0.4-15.7,38-1,109.4L1991.9,1179.3z"/>
				</g>
			</g>
			<g>
				<g>
					<path class="st7" d="M1964.7,1232.5c3.8-31.4,28.5-62.5,71.5-89.9c32.2-20.5,63.8-31.9,64.1-32l1.8,5.1
						c-1.2,0.4-123.4,45.1-132,117.4L1964.7,1232.5z"/>
				</g>
			</g>
			<g>
				<g>
					<path class="st7" d="M2059.7,1290.7c-2-8.4-2.8-13.4-2.8-13.6l5.4-0.8c0.1,1.1,15.9,106.8,107.6,170.1l-3.1,4.5
						C2092.9,1399.9,2067.3,1321.9,2059.7,1290.7z"/>
				</g>
			</g>
			<g>
				<g>
					<path class="st7" d="M2028.6,1425c-3.6-37.9,7.3-65,17.2-81.1c10.7-17.5,22.2-25.9,22.7-26.2l3.2,4.4
						c-0.4,0.3-44.3,33-37.6,102.3L2028.6,1425z"/>
				</g>
			</g>
			<g>
				<g>
					<path class="st7" d="M1802.1,1327.2c-19.3-79.2,15.4-148.5,15.8-149.2l4.9,2.5c-0.4,0.9-43.3,86.6-5.4,175.2l-5,2.2
						C1807.9,1347.6,1804.6,1337.3,1802.1,1327.2z"/>
				</g>
			</g>
			<g>
				<g>
					<path class="st7" d="M1800.8,1244.3l1.7-5.2c29.1,9.6,72.1,38.2,111.2,119.5c23.3,48.4,34.4,93.3,34.5,93.7l-5.3,1.3
						C1942.5,1451.8,1898.7,1276.6,1800.8,1244.3z"/>
				</g>
			</g>
		</g>
	</g>
	<g>
		<path class="st5" d="M1012.8,1178c0,0-321.8-530.3-462.4-437.6c-140.6,92.7,294.3,307.6,383.1,464.9L1012.8,1178z"/>
	</g>
	<g>
		<g>
			<path class="st10" d="M863,1083.4c0,0-370.3-392.8-497.4-281c-127.1,111.8,319.7,204.2,423.1,322.2L863,1083.4z"/>
		</g>
		<g>
			<g>
				<path class="st7" d="M821.7,1106.8c-69.9-82.8-173.7-148-248.5-188.2c-81.1-43.5-146.4-67.7-147.1-68l1.5-4.1
					c0.7,0.2,66.3,24.6,147.6,68.2c75.1,40.3,179.4,105.9,249.8,189.2L821.7,1106.8z"/>
			</g>
		</g>
	</g>
	<g>
		<g>
			<g>
				<path class="st4" d="M420.5,1235.9c83.3,16.2,72.2,142.1,166.3,116.8c94.1-25.4,86.1-31.2,132.4,8.9c0,0,18.5,39.3,56.3,45.1
					c148.9,22.9,347.1-200.8,189.8-318.4c-11.4-8.5-27.7-11.5-45.8-14c-98-13.2-127.5,32.3-206.9-81.2
					c-79.4-113.6-180.4,53.8-246.1,49.4c-65.6-4.4-123.8-22.9-173.4,47.7C243.5,1160.7,337.1,1219.7,420.5,1235.9z"/>
			</g>
		</g>
		<g>
			<g>
				<g>
					<path class="st11" d="M921.4,1248.9l3-4.7c-2.1-1.3-212.2-133.2-642.6-134.1l0,5.6C710.6,1116.6,919.3,1247.5,921.4,1248.9z"/>
				</g>
			</g>
			<g>
				<g>
					<path class="st11" d="M650.1,1088.4c55.7-52.3,64.8-93,65.2-94.7l-5.5-1.2c-0.1,0.4-9.3,40.9-63.5,91.8L650.1,1088.4z"/>
				</g>
			</g>
			<g>
				<g>
					<path class="st11" d="M641.6,1148.8c15.3-28.4,13-68.9-6.9-117c-14.8-36-34.5-64.1-34.7-64.4l-4.6,3.2
						c0.8,1.1,76.5,110.2,41.2,175.5L641.6,1148.8z"/>
				</g>
			</g>
			<g>
				<g>
					<path class="st11" d="M528.2,1141.5c6.6-5.8,10.2-9.5,10.4-9.7l-4.1-3.8c-0.7,0.8-76.1,79.7-189.7,78.7l0,5.6
						C436.2,1213.1,503.4,1163.1,528.2,1141.5z"/>
				</g>
			</g>
			<g>
				<g>
					<path class="st11" d="M475.1,1271.8c25.3-29.5,32.1-58.5,33.3-77.7c1.3-20.9-3.3-34.7-3.5-35.2l-5.3,1.8
						c0.2,0.5,17.6,53.5-28.8,107.5L475.1,1271.8z"/>
				</g>
			</g>
		</g>
	</g>
	<g>
		<g>
			<path class="st3" d="M1553.8,1336v-177.2h-357.5V1336c0,46.1-30.6,83.4-68.5,83.4h-14.4v22.9h523.2v-22.9h-14.4
				C1584.4,1419.4,1553.8,1382.1,1553.8,1336z"/>
		</g>
		<g>
			<path class="st2" d="M1633.7,1442.3h-517.4c-6.3,0-11.4-5.1-11.4-11.4l0,0c0-6.3,5.1-11.4,11.4-11.4h517.4
				c6.3,0,11.4,5.1,11.4,11.4l0,0C1645.1,1437.2,1640,1442.3,1633.7,1442.3z"/>
		</g>
	</g>
	<g>
		<path class="st12" d="M1984,1267.6L775,1253.7c-25.9-0.3-46.7-21.4-46.7-47.2V468.6c0-25.8,20.7-46.8,46.5-47.2l1193.3-18.3
			c26-0.4,47.4,20.3,48,46.3l15.6,770C2032.3,1246.1,2010.6,1267.9,1984,1267.6z"/>
	</g>
	<g>
		<path class="st13" d="M1945,1121.3H798.5c-12.9,0-23.3-10.4-23.3-23.3V500.7c0-12.9,10.4-23.3,23.3-23.3H1945
			c12.9,0,23.3,10.4,23.3,23.3V1098C1968.3,1110.8,1957.9,1121.3,1945,1121.3z"/>
	</g>
	<g>
		<path class="st14" d="M1541.2,538.9V757c0,13.2-10.2,24.1-23.1,25.2c-0.7,0.1-1.5,0.1-2.2,0.1h-322.5c-6.1,0-11.8-2.2-16.2-5.8
			c-5.6-4.6-9.2-11.7-9.2-19.5V538.9c0-14,11.3-25.3,25.3-25.3h322.5C1529.9,513.6,1541.2,524.9,1541.2,538.9z"/>
	</g>
	<g>
		<path class="st15" d="M1541.2,839.9V1058c0,14-11.3,25.3-25.3,25.3h-322.5c-6,0-11.5-2.1-15.9-5.6c-5.8-4.6-9.5-11.7-9.5-19.7
			V839.9c0-14,11.3-25.3,25.3-25.3h322.5C1529.9,814.5,1541.2,825.9,1541.2,839.9z"/>
	</g>
	<g>
		<path class="st4" d="M1936.2,538.9V757c0,10.4-6.3,19.4-15.3,23.3c-3.1,1.3-6.5,2.1-10,2.1h-322.6c-3,0-5.9-0.5-8.6-1.5
			c-9.8-3.5-16.7-12.9-16.7-23.8V538.9c0-14,11.3-25.3,25.3-25.3h322.6C1924.8,513.6,1936.2,524.9,1936.2,538.9z"/>
	</g>
	<g>
		<path class="st16" d="M1936.2,839.9V1058c0,9.6-5.3,17.9-13.2,22.2c-3.6,2-7.7,3.1-12.2,3.1h-322.6c-2.5,0-5-0.4-7.3-1.1
			c-10.4-3.1-18-12.8-18-24.3V839.9c0-14,11.3-25.3,25.3-25.3h322.6C1924.8,814.5,1936.2,825.9,1936.2,839.9z"/>
	</g>
	<g>
		<path class="st15" d="M847.2,1083.3h271.3c14.4,0,26.1-11.7,26.1-26.1V539.7c0-14.4-11.7-26.1-26.1-26.1H847.2
			c-14.4,0-26.1,11.7-26.1,26.1v517.5C821.1,1071.6,832.8,1083.3,847.2,1083.3z"/>
	</g>
	<g>
		<g>
			<path class="st7" d="M1668.2,687.8c-0.5-0.1-11.2-2.7-14.6-10.8c-1.9-4.7-1-10.1,2.8-16.3c1.6-2.6,3.1-5,4.5-7.2
				c9.2-14.7,12.7-20.2,10.2-32l1-0.2c2.6,12.2-0.9,17.8-10.3,32.8c-1.4,2.2-2.8,4.5-4.5,7.2c-3.6,5.9-4.5,11-2.7,15.3
				c3.2,7.6,13.7,10.2,13.8,10.2L1668.2,687.8z"/>
		</g>
		<g>
			<path class="st7" d="M1671.6,621.4c0,0,4.2,19-8.4,38.8c-12.6,19.8,1.1,34.3,18.1,26.7c17-7.6,23.5,14.1,45.2,2.1
				C1748.3,677,1671.6,621.4,1671.6,621.4z"/>
		</g>
		<g>
			<path class="st14" d="M1920.9,780.3c-3.1,1.3-6.5,2.1-10,2.1h-322.6c-3,0-5.9-0.5-8.6-1.5c13.6-23.8,48.2-63.2,131.2-73.6l0.1,0
				c7.2-0.9,14.6-2.2,22.4-2.8c13-0.9,25.9,0.2,38.7,0.8h0c0,0,0.1,0,0.1,0C1876.3,710.8,1910.2,756.1,1920.9,780.3z"/>
		</g>
		<g>
			<path class="st17" d="M1772.1,705.2c-9.4-1-17.6-6.9-21.3-15.6l-11.7-27.2l-3.4-7.9l-20-46.4l3.5,48.1l2.1,28.9l0.6,8.2
				c0.5,6.7-4.2,12.7-10.8,13.8l-0.1,0c-3.6,5.8-8.5,17.5,6.2,22.2c17.2,5.5,45.1-8.1,55.1-24.2
				C1772.2,705.2,1772.2,705.2,1772.1,705.2z"/>
		</g>
		<g>
			<path class="st2" d="M1739.1,661.7c0,0.3,0,0.5,0,0.8c-1.1,15.5-17.7,22.8-17.7,22.8l-0.1-0.1l-2.1-28.9
				c5.1-1.9,12.3-3.8,16.5-1.7C1737.9,655.6,1739.3,657.8,1739.1,661.7z"/>
		</g>
		<g>
			<ellipse class="st17" cx="1713.5" cy="615.8" rx="45.2" ry="55.8"/>
		</g>
		<g>
			<path class="st17" d="M1752.7,624.2c-5.1,4.9-12.3,5.4-16,1.1c-3.7-4.3-2.6-11.7,2.5-16.6c5.1-4.9,12.3-5.4,16-1.1
				C1758.9,611.9,1757.8,619.4,1752.7,624.2z"/>
		</g>
		<g>
			<path class="st18" d="M1689.2,651.9c0,0,15.4,0.4,30.9-5.1c0,0,1.3,15.2-15.4,16.2C1694.9,663.7,1689.2,651.9,1689.2,651.9z"/>
		</g>
		<g>
			<path class="st19" d="M1689.2,651.9c0,0,3.7,3.1,12.5,3.1c8.7,0,18.4-8.1,18.4-8.1S1701.5,652,1689.2,651.9z"/>
		</g>
		<g>
			<g>
				<path class="st20" d="M1709.2,616.4c-0.3-0.1-0.6-0.3-0.7-0.6c-0.2-0.5,0-1.1,0.6-1.3c0.3-0.1,7.2-3.7,13.3,3
					c0.4,0.4,0.4,1.1,0,1.5c-0.4,0.4-1,0.3-1.5,0c-4.7-3.2-10.8-2.6-11.1-2.5C1709.6,616.4,1709.4,616.4,1709.2,616.4z"/>
			</g>
		</g>
		<g>
			<path class="st20" d="M1717.3,627.7c0.1,2.5-1.3,4.5-3.1,4.5c-1.8,0.1-3.3-1.9-3.4-4.3c-0.1-2.5,1.3-4.5,3.1-4.5
				C1715.7,623.3,1717.2,625.2,1717.3,627.7z"/>
		</g>
		<g>
			<g>
				<path class="st20" d="M1672.5,621.7c-0.3,0-0.6-0.1-0.9-0.3c-0.4-0.4-0.4-1.1,0-1.5c0.2-0.2,5.3-6.2,13.4-2.3
					c0.5,0.2,0.8,0.8,0.5,1.4c-0.2,0.5-0.8,0.6-1.4,0.5c-5.6-1.1-11,1.7-11.2,1.9C1672.9,621.6,1672.7,621.7,1672.5,621.7z"/>
			</g>
		</g>
		<g>
			<path class="st20" d="M1684.3,629.1c1,2.2,0.5,4.6-1.1,5.4c-1.6,0.7-3.8-0.5-4.8-2.7c-1-2.2-0.5-4.6,1.1-5.4
				C1681.2,625.6,1683.3,626.8,1684.3,629.1z"/>
		</g>
		<g>
			<path class="st7" d="M1694.3,570.2c0,0,1,19.3,25.1,22.6c24.2,3.3,35.2,17,32,34.4c-3.2,17.4-36.6,50-8,64
				c28.6,14,22.5-12.1,53.6-6c31,6,36.6-35.4,15.3-59.4c-21.4-24-12.7-87.7-92.8-84.9c-80.1,2.8-50.8,66.7-50.8,66.7
				S1694.4,591.5,1694.3,570.2z"/>
		</g>
		<g>
			<path class="st19" d="M1751.7,694.8c-6-2.4-9.7-6.1-11-10.8c-3.5-13,11.6-32.6,24.9-49.9c3.5-4.6,6.8-8.8,9.8-13
				c8.2-11.4,8.9-24.4,1.9-34.9c-7.7-11.5-22.2-16.3-38.1-12.7c-15.8,3.7-26.6,0.4-32.9-3.1c-6.9-3.7-9.9-8.2-10.1-8.4l0.5-0.4
				c0.1,0.2,12.6,18.1,42.3,11.2c16.1-3.7,30.9,1.2,38.8,12.9c7,10.5,6.3,24.2-1.9,35.6c-2.9,4.1-6.3,8.4-9.8,13
				c-13.2,17.2-28.3,36.6-24.8,49.3c1.2,4.6,4.7,8,10.6,10.3L1751.7,694.8z"/>
		</g>
		<g>
			<path class="st19" d="M1675.6,658.3c-1.6,0-3.2-0.3-4.8-0.9c-6.8-2.5-12.8-10-16-20.1c-5.2-16.4-1.5-34.6,8.2-40.6
				c3.6-2.2,7.7-2.6,11.7-1.1c6.8,2.5,12.8,10,16,20.1c5.2,16.4,1.5,34.6-8.2,40.6C1680.3,657.6,1678,658.3,1675.6,658.3z
				 M1669.9,596.7c-2,0-4,0.6-5.9,1.7c-9,5.6-12.3,22.8-7.3,38.3c3,9.5,8.5,16.5,14.7,18.8c3.5,1.3,6.9,0.9,10-1
				c9-5.6,12.3-22.8,7.3-38.3l0,0c-3-9.5-8.5-16.5-14.7-18.8C1672.7,596.9,1671.3,596.7,1669.9,596.7z"/>
		</g>
		<g class="st21">
			<path class="st19" d="M1743,604.9c3.6,15.9-2.2,33-12.9,38.2c-10.8,5.2-22.4-3.6-26.1-19.5c-3.6-15.9,2.2-33,12.9-38.2
				C1727.7,580.3,1739.4,589,1743,604.9z"/>
		</g>
		<g class="st21">
			<path class="st19" d="M1691.1,616.9c3.6,16-1.2,33.3-10.8,38.7c-9.6,5.4-20.3-3.2-24-19.2c-3.6-16,1.2-33.3,10.8-38.7
				C1676.8,592.3,1687.5,600.9,1691.1,616.9z"/>
		</g>
		<g>
			<path class="st19" d="M1722.4,645.1c-2.5,0-5-0.6-7.4-1.8c-6.9-3.4-12.2-11-14.5-20.9c-4-17,2.5-35.4,14.4-41
				c4.8-2.2,9.9-2.2,14.7,0.1c6.9,3.4,12.2,11,14.5,20.9c4,17-2.5,35.4-14.4,41C1727.3,644.5,1724.9,645.1,1722.4,645.1z
				 M1722,581.8c-2.1,0-4.3,0.5-6.3,1.5c-11.1,5.2-17,22.5-13.3,38.7c2.1,9.2,7.2,16.5,13.5,19.5c4.2,2.1,8.7,2.1,12.9,0.1
				c11.1-5.2,17-22.5,13.3-38.7c-2.1-9.2-7.2-16.5-13.5-19.5C1726.4,582.4,1724.2,581.8,1722,581.8z"/>
		</g>
		<g>
			<path class="st19" d="M1689,622.9c-0.5,0-1.1-0.2-1.5-0.7c-0.7-0.8-0.5-2,0.2-2.6c0.3-0.2,6.4-5.2,16.6-3.2
				c1,0.2,1.7,1.2,1.5,2.2c-0.2,1-1.2,1.7-2.2,1.5c-8.4-1.7-13.3,2.2-13.5,2.4C1689.8,622.7,1689.4,622.9,1689,622.9z"/>
		</g>
	</g>
	<g>
		<g>
			<path class="st2" d="M1923,1079.6c-3.6,2.4-7.7,3.7-12.2,3.7h-322.6c-2.5,0-5-0.4-7.3-1.3c22.3-21.7,65.4-55.8,124.2-67.3
				c4.3-0.8,8.7-1.6,13.2-2.2c4.2-0.5,8.4-1,12.7-1.3c15-1,30-0.2,44.8,1.8c3.7,0.5,7.2,1,10.7,1.6
				C1860.8,1026.4,1901.2,1054.8,1923,1079.6z"/>
		</g>
		<g>
			<path class="st17" d="M1770.9,1026.9c6.7-10.2-2.9-11.1-5.9-21.5l-9.4-32l-2.7-9.3l-16-54.8l-3.1,54.2l-1.9,32.6l-0.6,10.3
				c-0.4,7-2.3,8-7.6,14c-2.1,2.4-10.1,12.3,0.1,17.2C1732.9,1041.9,1762.4,1040,1770.9,1026.9z"/>
		</g>
		<g>
			<path class="st2" d="M1767.8,961.1c0,0,53.4-18.6,45.4-58.4c-8-39.7-48.7,36-48.7,36l-2.2,20.8L1767.8,961.1z"/>
		</g>
		<g>
			<path class="st2" d="M1755.7,972.5c0,0.3-0.1,0.6-0.2,0.9c-3.6,17.1-23.6,22.7-23.6,22.7l-0.1-0.1l1.9-32.6
				c6.1-1.3,14.6-2.4,19.1,0.6C1755.2,965.6,1756.5,968.3,1755.7,972.5z"/>
		</g>
		<g>
			<path class="st17" d="M1685.4,917.5c4.1-31.6,28.7-54.4,54.9-50.9c26.2,3.4,44.1,31.8,39.9,63.4s-28.7,54.4-54.9,50.9
				C1699.2,977.4,1681.3,949,1685.4,917.5z"/>
		</g>
		<g>
			<path class="st2" d="M1774.2,922.3c0,0-15.8,3.2-22.4-8.6c-6.7-11.7-10.6-21.8-38-20.8c-27.3,1-49.5-15-48.3-29.6
				c1.2-14.6,16.1-19.3,29.9-12.4c13.7,7,0.2-8.3,15.9-17.1c15.7-8.8,34.3,16,49.5,15c15.2-1,61.4,13.1,52.5,53.7L1774.2,922.3z"/>
		</g>
		<g>
			<path class="st17" d="M1780.2,934c-4.8,3.1-11,2.1-13.8-2.3c-2.8-4.3-1.1-10.3,3.8-13.4c4.8-3.1,11-2.1,13.8,2.3
				C1786.7,924.9,1785,930.9,1780.2,934z"/>
		</g>
		<g>
			<path class="st19" d="M1701,871.3c-4.9,0-8.5-0.9-10.9-2.8c-4.1-3.3-4.4-6.2-3.3-7.9c1.3-2,5-2.6,8.8-0.4
				c6.5,3.8,11.3,3.2,11.4,3.2l0.1,0.6c-0.2,0-5.1,0.7-11.8-3.3c-3.5-2-6.8-1.5-7.9,0.2c-1,1.4-0.6,4,3.2,7c7.8,6.2,29-0.4,29.2-0.4
				l0.2,0.6c-0.1,0-5.4,1.7-11.8,2.6C1705.5,871.1,1703.1,871.3,1701,871.3z"/>
		</g>
		<g>
			<path class="st19" d="M1787.8,861.6c-5.6-4-12.4-3.6-20.4-3.1c-4,0.2-8.2,0.5-12.7,0.2c-13.6-0.7-24.9-13.7-25.3-15l0.6-0.2
				l-0.3,0.1l0.3-0.1c0.3,0.8,11.1,13.8,24.7,14.5c4.5,0.2,8.6,0,12.6-0.2c8.1-0.5,15-0.9,20.8,3.2L1787.8,861.6z"/>
		</g>
		<g>
			<path class="st19" d="M1803.6,895.3C1803.6,895.3,1803.5,895.3,1803.6,895.3c-2.1-0.1-5.4-6.2-5.5-9.3c-0.1-1.6,0.7-1.9,1.2-2
				c3.8-0.5,5.7,8.8,5.7,9.2l0,0.1l0,0.1C1804.8,894.9,1804.1,895.3,1803.6,895.3z M1799.6,884.6c-0.1,0-0.1,0-0.2,0
				c-0.2,0-0.7,0.1-0.6,1.3c0.1,2.9,3.2,8.6,4.8,8.7c0.5,0,0.7-0.7,0.8-1.4C1803.9,890.8,1802.1,884.6,1799.6,884.6z"/>
		</g>
		<g>
			<g>
				<path class="st20" d="M1723.9,921.3c-0.2-0.2-0.4-0.4-0.4-0.7c0-0.5,0.4-1,0.9-1c0.3,0,7.5-1.3,11.2,6.4c0.2,0.5,0,1.1-0.4,1.3
					c-0.5,0.2-1,0-1.3-0.4c-3.4-4.2-9-5.3-9.3-5.3C1724.2,921.4,1724,921.4,1723.9,921.3z"/>
			</g>
		</g>
		<g>
			<path class="st20" d="M1728.1,933.7c-0.6,2.2-2.4,3.7-4,3.2c-1.6-0.4-2.4-2.6-1.8-4.8c0.6-2.2,2.4-3.7,4-3.2
				C1727.9,929.3,1728.7,931.5,1728.1,933.7z"/>
		</g>
		<g>
			<g>
				<path class="st20" d="M1688,918.4c-0.2,0-0.4-0.2-0.5-0.5c-0.2-0.5,0-1,0.4-1.3c0.2-0.2,5.2-4.3,9.9,1.1c0.3,0.3,0.3,0.9,0,1.4
					c-0.3,0.4-0.7,0.4-1.1,0.1c-3.6-2.4-8-1.1-8.2-0.9C1688.3,918.4,1688.2,918.4,1688,918.4z"/>
			</g>
		</g>
		<g>
			<path class="st20" d="M1696.8,928.3c0.3,2.3-0.8,4.3-2.5,4.5c-1.7,0.2-3.2-1.5-3.5-3.8s0.8-4.3,2.5-4.5
				C1695,924.3,1696.6,926,1696.8,928.3z"/>
		</g>
		<g>
			<g>
				<path class="st22" d="M1722.4,964.3c-8.6,0-15.3-5.3-15.4-5.3c-0.3-0.2-0.3-0.7-0.1-1c0.2-0.3,0.7-0.3,1-0.1
					c0.5,0.4,13.3,10.4,26,1.2c0.3-0.2,0.7-0.2,0.9,0.2c0.2,0.3,0.2,0.7-0.2,0.9C1730.5,963.2,1726.3,964.3,1722.4,964.3z"/>
			</g>
			<g>
				<path class="st22" d="M1735.2,963C1735.2,963,1735.2,963,1735.2,963c-0.4,0-0.7-0.4-0.7-0.7c0.1-1-0.2-2.7-1.9-5.1
					c-0.1-0.1-0.1-0.2-0.1-0.2c-0.2-0.3-0.1-0.7,0.2-0.9c0.3-0.2,0.7-0.1,0.9,0.2l0.1,0.1c1.6,2.2,2.4,4.3,2.2,6
					C1735.8,962.7,1735.6,963,1735.2,963z"/>
			</g>
		</g>
		<g>
			<path class="st19" d="M1683.7,957c-2.4,0-4.8-0.7-7.1-2.1c-6.1-3.8-10.5-12.4-11.5-22.9c-1.8-17.1,5.5-34.2,16.3-38.1
				c4-1.5,8-1,11.7,1.3c6.1,3.8,10.5,12.4,11.5,22.9c1.8,17.1-5.5,34.2-16.3,38.1C1686.8,956.7,1685.3,957,1683.7,957z M1686,895.1
				c-1.3,0-2.6,0.2-3.9,0.7c-9.9,3.6-16.7,19.8-15,36c1,9.9,5,17.9,10.6,21.4c3.1,2,6.6,2.3,10,1.1c9.9-3.6,16.7-19.8,15-36
				c-1-9.9-5-17.9-10.6-21.4C1690.1,895.7,1688.1,895.1,1686,895.1z"/>
		</g>
		<g class="st21">
			<path class="st19" d="M1758,918.3c0.3,16.3-8.9,31.9-20.5,34.7c-11.6,2.9-21.3-8.1-21.6-24.4c-0.3-16.3,8.9-31.9,20.5-34.7
				C1748.1,891,1757.7,902,1758,918.3z"/>
		</g>
		<g class="st21">
			<path class="st19" d="M1704.8,919.4c0.3,16.4-8,32.4-18.5,35.7c-10.5,3.3-19.3-7.3-19.6-23.7c-0.3-16.4,8-32.4,18.5-35.7
				C1695.8,892.4,1704.5,903,1704.8,919.4z"/>
		</g>
		<g>
			<path class="st19" d="M1733,953.7c-3.7,0-7.1-1.2-10.2-3.6c-6.1-4.7-9.7-13.2-10-23.4c-0.4-17.5,9.7-34.1,22.4-37.2
				c5.2-1.2,10.1-0.2,14.3,3.1c6.1,4.7,9.7,13.2,10,23.4c0.4,17.5-9.7,34.1-22.4,37.2C1735.7,953.6,1734.3,953.7,1733,953.7z
				 M1739.3,891.1c-1.2,0-2.4,0.1-3.6,0.4c-11.9,2.8-21.3,18.6-20.9,35.2c0.2,9.4,3.7,17.6,9.2,21.9c3.7,2.9,8.1,3.8,12.6,2.7
				c11.9-2.8,21.3-18.6,20.9-35.2c-0.2-9.4-3.7-17.6-9.2-21.9C1745.6,892.2,1742.5,891.1,1739.3,891.1z"/>
		</g>
		<g>
			<path class="st19" d="M1717.2,925.2c-0.2,0-0.5,0-0.7-0.1c-8-3.4-13.6-0.5-13.7-0.4c-0.9,0.5-2.1,0.1-2.5-0.8
				c-0.5-0.9-0.1-2.1,0.8-2.5c0.3-0.2,7.3-3.8,16.9,0.3c1,0.4,1.4,1.5,1,2.5C1718.6,924.8,1717.9,925.2,1717.2,925.2z"/>
		</g>
		<g>
			<path class="st2" d="M1813.4,903.2l-0.5-0.9c7.7-3.9,5.7-12.4,5.7-12.5l1-0.3C1819.7,889.6,1821.9,898.9,1813.4,903.2z"/>
		</g>
		<g>
			<path class="st2" d="M1819,914.5c0-0.1-4.2-6.4-8.7-7.4l0.2-1c4.9,1.1,9.1,7.6,9.3,7.9L1819,914.5z"/>
		</g>
	</g>
	<g>
		<g>
			<path class="st3" d="M1406.4,583c0,0,3.4,13,0,29.4c-3.4,16.3-20-23.8-20-23.8L1406.4,583z"/>
		</g>
		<g>
			<path class="st16" d="M1518.1,782.3c-0.7,0.1-1.5,0.1-2.2,0.1h-322.5c-6.1,0-11.8-2.2-16.2-5.8c18.9-19.8,59.9-51.7,133.9-61.9
				c2.3-0.3,4.6-0.6,6.9-0.9c2.3-0.3,4.6-0.5,6.8-0.7c5.5-0.5,11.1-0.9,16.7-1c7.1-0.2,14.2-0.1,21.3,0.3c0.5,0,1,0.1,1.5,0.1
				c0.2,0,0.4,0,0.5,0c5.9,0.4,11.6,1.3,17.2,2c2.3,0.3,4.5,0.6,6.7,0.8C1459.4,721.9,1498,754.9,1518.1,782.3z"/>
		</g>
		<g>
			<path class="st17" d="M1325.6,731.6c-13.7-7.9,0.3-16.2,3.3-26.5l9.4-32l2.7-9.3l16-54.8l3.1,54.2l1.9,32.6l0.6,10.3
				c0.4,7,4.7,8.4,10,14.4c2.1,2.4,6,0.4-10.5,3.2C1348.5,725.8,1335.3,737.1,1325.6,731.6z"/>
		</g>
		<g>
			<path class="st17" d="M1408.4,617c-4.1-31.6-28.7-54.4-54.9-50.9c-26.2,3.4-44.1,31.8-39.9,63.4c4.1,31.6,28.7,54.4,54.9,50.9
				C1394.7,677,1412.5,648.6,1408.4,617z"/>
		</g>
		<g>
			<path class="st2" d="M1312.4,613l23.1-2.4c5.1-0.5,9.7-3.3,12.5-7.6c4.7-7.4,10.4-11.2,32-10.4c27.3,1,45.4-15.3,48.3-29.6
				c3-14.6-11-24.5-24.7-17.5c-13.7,7-7.8-10.1-21-11.9c-24.7-3.4-29.3,15.6-49.5,15c-26.5-0.8-73.9,19.3-51.4,66L1312.4,613z"/>
		</g>
		<g>
			<g>
				<path class="st20" d="M1370,620.9c0.2-0.2,0.4-0.4,0.4-0.7c0-0.5-0.4-1-0.9-1c-0.3,0-7.5-1.3-11.2,6.4c-0.2,0.5,0,1.1,0.4,1.3
					c0.5,0.2,1,0,1.3-0.4c3.4-4.2,9-5.3,9.3-5.3C1369.6,621,1369.8,621,1370,620.9z"/>
			</g>
		</g>
		<g>
			<path class="st20" d="M1365.8,633.3c0.6,2.2,2.4,3.7,4,3.2c1.6-0.4,2.4-2.6,1.8-4.8c-0.6-2.2-2.4-3.7-4-3.2
				C1366,628.9,1365.1,631.1,1365.8,633.3z"/>
		</g>
		<g>
			<g>
				<path class="st20" d="M1405.8,618c0.2,0,0.4-0.2,0.5-0.5c0.2-0.5,0-1-0.4-1.3c-0.2-0.2-5.2-4.3-9.9,1.1c-0.3,0.3-0.3,0.9,0,1.4
					c0.3,0.4,0.7,0.4,1.1,0.1c3.6-2.4,8-1.1,8.2-0.9C1405.5,618,1405.7,618,1405.8,618z"/>
			</g>
		</g>
		<g>
			<path class="st20" d="M1397,627.9c-0.3,2.3,0.8,4.3,2.5,4.5c1.7,0.2,3.2-1.5,3.5-3.8c0.3-2.3-0.8-4.3-2.5-4.5
				C1398.8,623.9,1397.3,625.6,1397,627.9z"/>
		</g>
		<g>
			<path class="st3" d="M1281.7,614.5c0,0,16,34.5,38.7,37c0,0-18.3-26.3,20.3-42.3C1340.7,609.2,1305.2,603.7,1281.7,614.5z"/>
		</g>
		<g>
			<path class="st17" d="M1313.7,633.6c4.8,3.1,11,2.1,13.8-2.3c2.8-4.3,1.1-10.3-3.8-13.4c-4.8-3.1-11-2.1-13.8,2.3
				C1307.1,624.5,1308.8,630.5,1313.7,633.6z"/>
		</g>
		<g>
			<path class="st3" d="M1340.7,609.2c0,0-3.1,28.9,2.8,34.4c5.9,5.5,44.8,7.8,63,0.8l0,0c0.3,18.6-12.8,35-31.1,38.1
				c-6.1,1-12.3,1-18.6-0.1l0,0c-12.7-2.2-25.1-7.5-30.3-19.3c-1.6-3.6,3-25.7,3-25.7s1.7-13-5.8-19.7
				C1323.6,617.9,1332.3,610.1,1340.7,609.2z"/>
		</g>
		<g>
			<path class="st19" d="M1396.8,654.9c0,0-14.9,4-31.2,2.5c0,0,2.4,15.1,18.9,12.1C1394.1,667.7,1396.8,654.9,1396.8,654.9z"/>
		</g>
		<g>
			<path class="st2" d="M1400.7,543.2c-7.2,0-7.8-6.2-7.8-6.3l1.3-0.1l-0.6,0.1l0.6-0.1c0,0.2,0.6,5.3,6.9,5.1l0,1.3
				C1401,543.2,1400.9,543.2,1400.7,543.2z"/>
		</g>
		<g>
			<path class="st19" d="M1387.8,584.9l-0.2-0.6c0.3-0.1,29.4-8.7,30.6-23.7c0.3-4.2-0.4-7-2.2-8.6c-2.9-2.5-8.1-1.3-12.8-0.2
				c-0.7,0.2-1.4,0.3-2.1,0.5l-0.1-0.6c0.7-0.1,1.4-0.3,2.1-0.5c4.8-1.1,10.2-2.4,13.3,0.3c2,1.7,2.7,4.7,2.4,9.1
				c-0.5,6.4-6.1,12.6-16,18C1395.3,582.7,1387.9,584.9,1387.8,584.9z"/>
		</g>
		<g>
			<path class="st19" d="M1330.5,554.6c-2.7,0-5.6-0.2-8.7-0.6l0.1-0.6c28.4,3.8,42.1-12.1,42.2-12.3l0.5,0.4
				C1364.5,541.6,1353.4,554.6,1330.5,554.6z"/>
		</g>
		<g>
			<path class="st15" d="M1311.1,714.6c0,0,10.1-20.5,18-17.6c4.5,1.6,8.6,16.5,21.9,21c13.3,4.6,12.2,6.5,12,10.9
				c-0.2,4.3,1.5,19.4-4.3,20C1352.7,749.5,1307.2,740.4,1311.1,714.6z"/>
		</g>
		<g>
			<path class="st15" d="M1361.6,703.1c-0.1-1.2,1.2-2.1,2.4-1.6c4.2,1.9,15.3,7.3,19.3,15c5.1,9.6-1.5,29.4-6.5,29.8
				c-5,0.4-15.9-20-14.8-22.7c1.1-2.7,3.3-9.1,1.9-12.5C1362.9,708.7,1361.7,705.4,1361.6,703.1z"/>
		</g>
	</g>
	<g>
		<g>
			<path class="st14" d="M1250.1,1064.2c-10.7,0-21.9-5.3-31.5-15.1c-9.2-9.2-16.3-22-19.7-34.9c-6.5-24.9,1.6-46.1,21.5-56.7
				c46.9-25,52.2-48.7,52.2-49l3.1,0.6c-0.2,1-5.4,25.3-53.8,51.2c-8.9,4.7-28.6,19.4-19.9,53.1c3.2,12.4,10.1,24.6,18.9,33.4
				c9.2,9.3,19.8,14.4,29.8,14.2l0.1,3.2C1250.5,1064.2,1250.3,1064.2,1250.1,1064.2z"/>
		</g>
		<g>
			<path class="st14" d="M1360.7,834.7c0,0,33.4,1.6,52.6,29.2c29,41.7-19.2,74.6,0.7,91.7c19.1,16.5,40.5,5.5,33.7,28.1
				c-6.9,22.6,41.9,13.5,22.1,57.6c-19.8,44.1-206.8,28.2-232.4,12.3c-18.4-11.4-52.6-57.4,2.8-101
				C1295.6,909.2,1257.9,824,1360.7,834.7z"/>
		</g>
		<g>
			<path class="st4" d="M1505.2,1083.3h-311.8c-6,0-11.5-2.1-15.9-5.6c9-14.4,26.2-34.2,57.7-49.2c20.9-10,48.2-17.7,83.5-20.2
				c0.1,0,0.1,0,0.2,0h0c12.8-0.9,25.7-1.8,38.7-0.8c7.7,0.6,15.1,1.9,22.4,2.8l0.1,0c42.1,5.4,72.5,21.5,94,39.1
				C1487.9,1060.9,1498.1,1073.1,1505.2,1083.3z"/>
		</g>
		<g>
			<path class="st17" d="M1323.8,1019c-4.2-6.3,5.5-12.7,8.1-21.8l8-28.5l2.3-8.3l13.7-48.6l2.9,48.1l1.7,28.9l0.5,8.1
				c0.3,5.1,1.9,8.8,5.5,10.7c3.8,2,6.7,5.3,7.7,9.5c1.2,5.2,0.8,11.7-6.6,15.2C1351.3,1040.1,1330.5,1029.1,1323.8,1019z"/>
		</g>
		<g>
			<path class="st2" d="M1339.7,967.9c0,0.3,0.1,0.5,0.2,0.8c3.2,15.2,20.6,20.2,20.6,20.2l0.1-0.1l-1.7-28.9
				c-5.3-1.2-12.7-2.1-16.6,0.5C1340.2,961.8,1339.1,964.2,1339.7,967.9z"/>
		</g>
		<g>
			<path class="st17" d="M1403.9,913.2c-4.1-30.5-27.4-52.6-52.1-49.3c-24.7,3.3-41.5,30.7-37.5,61.2c4.1,30.5,27.4,52.6,52.1,49.3
				C1391.2,971.1,1407.9,943.7,1403.9,913.2z"/>
		</g>
		<g>
			<g>
				<path class="st20" d="M1363.5,919.1c0.3-0.1,0.5-0.4,0.6-0.7c0.1-0.5-0.2-1.1-0.7-1.2c-0.3-0.1-7.7-2.7-12.8,4.7
					c-0.3,0.5-0.2,1.1,0.2,1.4c0.5,0.3,1,0.1,1.4-0.2c4.3-3.8,10.4-4,10.6-3.9C1363.1,919.2,1363.3,919.2,1363.5,919.1z"/>
			</g>
		</g>
		<g>
			<path class="st20" d="M1356.9,931.4c0.2,2.4,1.9,4.3,3.7,4.1c1.8-0.2,3-2.3,2.8-4.7c-0.2-2.4-1.9-4.3-3.7-4.1
				C1357.9,926.8,1356.7,928.9,1356.9,931.4z"/>
		</g>
		<g>
			<g>
				<path class="st20" d="M1400.6,919.6c0.3,0,0.6-0.1,0.8-0.4c0.3-0.5,0.2-1.1-0.2-1.4c-0.3-0.2-6-5.4-13.6-0.5
					c-0.5,0.3-0.6,0.9-0.3,1.4c0.3,0.5,0.9,0.5,1.4,0.3c5.4-1.9,11.1,0.3,11.3,0.4C1400.1,919.5,1400.4,919.6,1400.6,919.6z"/>
			</g>
		</g>
		<g>
			<path class="st20" d="M1389.8,928.4c-0.7,2.4,0.1,4.7,1.8,5.2s3.7-1,4.4-3.3s-0.1-4.7-1.8-5.2
				C1392.5,924.6,1390.5,926.1,1389.8,928.4z"/>
		</g>
		<g>
			<path class="st17" d="M1321.4,932.6c5.7,4.2,12.9,3.7,16-1c3.1-4.7,1-11.9-4.7-16.1c-5.7-4.2-12.9-3.7-16,1
				C1313.6,921.3,1315.7,928.5,1321.4,932.6z"/>
		</g>
		<g>
			<path class="st14" d="M1370.9,882.5c0,0,20.3-8.7,25.2,12c4.1,17.4,8.3,23.8,13.9,21.1c5.6-2.6-12-46.7-12-46.7l-31.9-8.6
				l-8.2,1.4L1370.9,882.5z"/>
		</g>
		<g>
			<path class="st14" d="M1370.9,882.5c0,0-17.5-12-30.7,4.6c-13.3,16.6-8.9,41.9-26.7,46.1c-17.9,4.2-31-54.9-7.4-67.9
				s38.3-16.5,45.7-10.3C1359.1,861.1,1370.9,882.5,1370.9,882.5z"/>
		</g>
		<g>
			<path class="st19" d="M1293.9,934.3l-0.2-1c17.4-3.5,20.8-13.5,24.7-25.1c2.7-8.1,5.8-17.2,14.3-25.2c20.4-19.2,37.9-5.1,38.1-5
				l-0.7,0.8c-0.7-0.6-17-13.6-36.7,4.9c-8.3,7.8-11.2,16.4-14,24.8C1315.4,920.4,1311.9,930.7,1293.9,934.3z"/>
		</g>
		<g>
			<g>
				<path class="st19" d="M1398.3,955.2c-2,0-4-0.5-6-1.4c-10.2-4.8-15.4-21.3-11.6-36.8l0,0c2.3-9.2,7.4-16.4,13.7-19.4
					c4.1-1.9,8.3-2,12.2-0.1c10.2,4.8,15.4,21.3,11.6,36.8c-2.3,9.2-7.4,16.4-13.7,19.4C1402.5,954.7,1400.4,955.2,1398.3,955.2z
					 M1382.6,917.5c-3.6,14.6,1.1,30.1,10.5,34.6c3.4,1.6,7.1,1.6,10.6-0.1c5.8-2.7,10.5-9.5,12.6-18.1c3.6-14.6-1.1-30.1-10.5-34.6
					c-3.4-1.6-7.1-1.6-10.6,0.1C1389.5,902.1,1384.8,908.9,1382.6,917.5L1382.6,917.5z"/>
			</g>
			<g class="st21">
				<path class="st19" d="M1328,918c-2.3,14.9,4.9,30.2,16.1,34.1c11.2,3.9,22.1-5,24.4-19.9c2.3-14.9-4.9-30.2-16.1-34.1
					C1341.2,894.2,1330.3,903.1,1328,918z"/>
			</g>
			<g class="st21">
				<path class="st19" d="M1380.4,918.3c-2.3,15,4,30.5,14,34.8c10,4.2,20-4.5,22.3-19.5c2.3-15-4-30.5-14-34.8
					C1392.7,894.6,1382.7,903.3,1380.4,918.3z"/>
			</g>
			<g>
				<path class="st19" d="M1350.5,953.4c-2,0-4-0.3-5.9-1c-12.3-4.2-20.3-20.6-17.7-36.6l0,0c1.4-8.9,5.8-16.2,12-19.9
					c4.7-2.8,10.1-3.4,15.2-1.6c12.3,4.2,20.3,20.6,17.7,36.6c-1.4,8.9-5.8,16.2-12,19.9C1356.9,952.5,1353.7,953.4,1350.5,953.4z
					 M1348.1,895.1c-2.9,0-5.7,0.8-8.3,2.4c-5.8,3.5-9.8,10.2-11.1,18.6l0,0c-2.4,15.1,5,30.6,16.4,34.5c4.7,1.6,9.4,1.1,13.6-1.5
					c5.8-3.5,9.8-10.2,11.1-18.6c2.4-15.1-5-30.6-16.4-34.5C1351.7,895.4,1349.9,895.1,1348.1,895.1z"/>
			</g>
			<g>
				<path class="st19" d="M1382.9,926.1c-0.4,0-0.7-0.1-1.1-0.3c-0.2-0.2-5.4-3.6-13.6-1.2c-1,0.3-2-0.3-2.3-1.3
					c-0.3-1,0.3-2,1.3-2.3c10-2.9,16.5,1.6,16.8,1.8c0.9,0.6,1.1,1.8,0.5,2.6C1384.1,925.8,1383.5,926.1,1382.9,926.1z"/>
			</g>
		</g>
		<g>
			<g>
				<path class="st22" d="M1369.9,961.9c-3.8,0-8.1-1-12.2-4.1c-0.3-0.2-0.4-0.6-0.2-0.9c0.2-0.3,0.6-0.4,0.9-0.2
					c12.7,9.2,25.9-1.1,26-1.2c0.3-0.2,0.7-0.2,1,0.1c0.2,0.3,0.2,0.7-0.1,1C1385.2,956.6,1378.5,961.9,1369.9,961.9z"/>
			</g>
			<g>
				<path class="st22" d="M1357.1,960.6c-0.3,0-0.6-0.3-0.7-0.6c-0.2-1.8,0.5-3.8,2.2-6l0.1-0.1c0.2-0.3,0.6-0.4,0.9-0.2
					c0.3,0.2,0.4,0.6,0.2,0.9c0,0-0.1,0.1-0.1,0.2c-1.8,2.4-2,4.1-1.9,5.1C1357.8,960.2,1357.5,960.6,1357.1,960.6
					C1357.1,960.6,1357.1,960.6,1357.1,960.6z"/>
			</g>
		</g>
	</g>
	<g>
		<g>
			<path class="st3" d="M891.9,823.7c0,7.8-3.2,14.8-8.3,19.9c-5.1,5.1-12.1,8.2-19.9,8.2c-7.8,0-14.8-3.2-19.9-8.2
				c-5.1-5.1-8.3-12.2-8.3-19.9c0-15.5,12.6-28.2,28.2-28.2C879.3,795.5,891.9,808.2,891.9,823.7z"/>
		</g>
		<g>
			<g>
				<path class="st4" d="M853.4,815.2c0-5.7,4.6-10.4,10.4-10.4c5.7,0,10.4,4.6,10.4,10.4c0,5.7-4.6,10.4-10.4,10.4
					C858.1,825.5,853.4,820.9,853.4,815.2z"/>
			</g>
			<g>
				<path class="st4" d="M883.7,843.6c-5.1,5.1-12.1,8.2-19.9,8.2c-7.8,0-14.8-3.2-19.9-8.2c2.4-8.8,10.4-15.2,19.9-15.2
					C873.3,828.4,881.3,834.9,883.7,843.6z"/>
			</g>
		</g>
	</g>
	<g>
		<g>
			<path class="st3" d="M1083.5,846.8H934.4c-6.5,0-11.8-5.3-11.8-11.8v-22.6c0-6.5,5.3-11.8,11.8-11.8h149.1
				c6.5,0,11.8,5.3,11.8,11.8V835C1095.2,841.5,1089.9,846.8,1083.5,846.8z"/>
		</g>
		<g>
			<g>
				<path class="st15" d="M977,818.3h-39c-0.9,0-1.6-0.7-1.6-1.6v-0.7c0-0.9,0.7-1.6,1.6-1.6h39c0.9,0,1.6,0.7,1.6,1.6v0.7
					C978.6,817.6,977.9,818.3,977,818.3z"/>
			</g>
			<g>
				<path class="st15" d="M994.8,827.7h-56.4c-1.1,0-1.9-0.9-1.9-1.9v-0.1c0-1.1,0.9-1.9,1.9-1.9h56.4c1.1,0,1.9,0.9,1.9,1.9v0.1
					C996.7,826.8,995.8,827.7,994.8,827.7z"/>
			</g>
			<g>
				<path class="st15" d="M1057.9,827.7h-49.8c-1,0-1.8-0.8-1.8-1.8v-0.3c0-1,0.8-1.8,1.8-1.8h49.8c1,0,1.8,0.8,1.8,1.8v0.3
					C1059.7,826.8,1058.9,827.7,1057.9,827.7z"/>
			</g>
			<g>
				<path class="st15" d="M1028.4,818.3h-39c-0.9,0-1.6-0.7-1.6-1.6v-0.7c0-0.9,0.7-1.6,1.6-1.6h39c0.9,0,1.6,0.7,1.6,1.6v0.7
					C1030,817.6,1029.3,818.3,1028.4,818.3z"/>
			</g>
		</g>
	</g>
	<g>
		<g>
			<path class="st3" d="M891.9,734.4c0,7.8-3.2,14.8-8.3,19.9c-5.1,5.1-12.1,8.2-19.9,8.2c-7.8,0-14.8-3.2-19.9-8.2
				c-5.1-5.1-8.3-12.1-8.3-19.9c0-15.5,12.6-28.2,28.2-28.2C879.3,706.3,891.9,718.9,891.9,734.4z"/>
		</g>
		<g>
			
				<ellipse transform="matrix(1 -2.538785e-03 2.538785e-03 1 -1.8401 2.1953)" class="st4" cx="863.8" cy="725.9" rx="10.4" ry="10.4"/>
		</g>
		<g>
			<path class="st4" d="M883.7,754.4c-5.1,5.1-12.1,8.2-19.9,8.2c-7.8,0-14.8-3.2-19.9-8.2c2.4-8.8,10.4-15.2,19.9-15.2
				C873.3,739.2,881.3,745.6,883.7,754.4z"/>
		</g>
	</g>
	<g>
		<g>
			<path class="st3" d="M1083.5,757.5H934.4c-6.5,0-11.8-5.3-11.8-11.8v-22.6c0-6.5,5.3-11.8,11.8-11.8h149.1
				c6.5,0,11.8,5.3,11.8,11.8v22.6C1095.2,752.2,1089.9,757.5,1083.5,757.5z"/>
		</g>
		<g>
			<g>
				<path class="st15" d="M977,729h-39c-0.9,0-1.6-0.7-1.6-1.6v-0.7c0-0.9,0.7-1.6,1.6-1.6h39c0.9,0,1.6,0.7,1.6,1.6v0.7
					C978.6,728.3,977.9,729,977,729z"/>
			</g>
			<g>
				<path class="st15" d="M994.8,738.4h-56.4c-1.1,0-1.9-0.9-1.9-1.9v-0.1c0-1.1,0.9-1.9,1.9-1.9h56.4c1.1,0,1.9,0.9,1.9,1.9v0.1
					C996.7,737.5,995.8,738.4,994.8,738.4z"/>
			</g>
			<g>
				<path class="st15" d="M1057.9,738.4h-49.8c-1,0-1.8-0.8-1.8-1.8v-0.3c0-1,0.8-1.8,1.8-1.8h49.8c1,0,1.8,0.8,1.8,1.8v0.3
					C1059.7,737.6,1058.9,738.4,1057.9,738.4z"/>
			</g>
			<g>
				<path class="st15" d="M1028.4,729h-39c-0.9,0-1.6-0.7-1.6-1.6v-0.7c0-0.9,0.7-1.6,1.6-1.6h39c0.9,0,1.6,0.7,1.6,1.6v0.7
					C1030,728.3,1029.3,729,1028.4,729z"/>
			</g>
		</g>
	</g>
	<g>
		<g>
			<path class="st3" d="M895.2,567.4c0,7.8-3.2,14.8-8.3,19.9c-5.1,5.1-12.1,8.2-19.9,8.2c-7.8,0-14.8-3.2-19.9-8.2
				c-5.1-5.1-8.3-12.1-8.3-19.9c0-15.5,12.6-28.2,28.2-28.2C882.6,539.3,895.2,551.9,895.2,567.4z"/>
		</g>
		<g>
			<path class="st4" d="M856.7,558.9c0-5.7,4.6-10.4,10.4-10.4c5.7,0,10.4,4.6,10.4,10.4c0,5.7-4.6,10.4-10.4,10.4
				C861.3,569.2,856.7,564.6,856.7,558.9z"/>
		</g>
		<g>
			<path class="st4" d="M886.9,587.4c-5.1,5.1-12.1,8.2-19.9,8.2c-7.8,0-14.8-3.2-19.9-8.2c2.4-8.8,10.4-15.2,19.9-15.2
				C876.5,572.2,884.5,578.6,886.9,587.4z"/>
		</g>
	</g>
	<g>
		<g>
			<path class="st3" d="M1086.7,590.5H937.6c-6.5,0-11.8-5.3-11.8-11.8v-22.6c0-6.5,5.3-11.8,11.8-11.8h149.1
				c6.5,0,11.8,5.3,11.8,11.8v22.6C1098.5,585.2,1093.2,590.5,1086.7,590.5z"/>
		</g>
		<g>
			<g>
				<path class="st15" d="M980.2,562h-39c-0.9,0-1.6-0.7-1.6-1.6v-0.7c0-0.9,0.7-1.6,1.6-1.6h39c0.9,0,1.6,0.7,1.6,1.6v0.7
					C981.8,561.3,981.1,562,980.2,562z"/>
			</g>
			<g>
				<path class="st15" d="M998,571.4h-56.4c-1.1,0-1.9-0.9-1.9-1.9v-0.1c0-1.1,0.9-1.9,1.9-1.9H998c1.1,0,1.9,0.9,1.9,1.9v0.1
					C999.9,570.5,999,571.4,998,571.4z"/>
			</g>
			<g>
				<path class="st15" d="M1061.2,571.4h-49.8c-1,0-1.8-0.8-1.8-1.8v-0.3c0-1,0.8-1.8,1.8-1.8h49.8c1,0,1.8,0.8,1.8,1.8v0.3
					C1063,570.6,1062.2,571.4,1061.2,571.4z"/>
			</g>
			<g>
				<path class="st15" d="M1031.7,562h-39c-0.9,0-1.6-0.7-1.6-1.6v-0.7c0-0.9,0.7-1.6,1.6-1.6h39c0.9,0,1.6,0.7,1.6,1.6v0.7
					C1033.3,561.3,1032.5,562,1031.7,562z"/>
			</g>
		</g>
	</g>
	<g>
		<g>
			<path class="st3" d="M1131.3,911.8c0,7.8-3.2,14.8-8.3,19.9c-5.1,5.1-12.1,8.2-19.9,8.2s-14.8-3.2-19.9-8.2
				c-5.1-5.1-8.3-12.2-8.3-19.9c0-15.5,12.6-28.2,28.2-28.2S1131.3,896.3,1131.3,911.8z"/>
		</g>
		<g>
			
				<ellipse transform="matrix(2.551586e-03 -1 1 2.551586e-03 197.0408 2004.0754)" class="st14" cx="1103.1" cy="903.3" rx="10.4" ry="10.4"/>
		</g>
		<g>
			<path class="st14" d="M1123,931.7c-5.1,5.1-12.1,8.2-19.9,8.2s-14.8-3.2-19.9-8.2c2.4-8.8,10.4-15.2,19.9-15.2
				S1120.6,923,1123,931.7z"/>
		</g>
	</g>
	<g>
		<g>
			<path class="st4" d="M1035.3,934.9H886.2c-6.5,0-11.8-5.3-11.8-11.8v-22.6c0-6.5,5.3-11.8,11.8-11.8h149.1
				c6.5,0,11.8,5.3,11.8,11.8v22.6C1047,929.6,1041.7,934.9,1035.3,934.9z"/>
		</g>
		<g>
			<g>
				<path class="st15" d="M928.8,906.4h-39c-0.9,0-1.6-0.7-1.6-1.6v-0.7c0-0.9,0.7-1.6,1.6-1.6h39c0.9,0,1.6,0.7,1.6,1.6v0.7
					C930.4,905.7,929.6,906.4,928.8,906.4z"/>
			</g>
			<g>
				<path class="st15" d="M946.5,915.8h-56.4c-1.1,0-1.9-0.9-1.9-1.9v-0.1c0-1.1,0.9-1.9,1.9-1.9h56.4c1.1,0,1.9,0.9,1.9,1.9v0.1
					C948.5,914.9,947.6,915.8,946.5,915.8z"/>
			</g>
			<g>
				<path class="st15" d="M1009.7,915.8H960c-1,0-1.8-0.8-1.8-1.8v-0.3c0-1,0.8-1.8,1.8-1.8h49.8c1,0,1.8,0.8,1.8,1.8v0.3
					C1011.5,915,1010.7,915.8,1009.7,915.8z"/>
			</g>
			<g>
				<path class="st15" d="M980.2,906.4h-39c-0.9,0-1.6-0.7-1.6-1.6v-0.7c0-0.9,0.7-1.6,1.6-1.6h39c0.9,0,1.6,0.7,1.6,1.6v0.7
					C981.8,905.7,981.1,906.4,980.2,906.4z"/>
			</g>
		</g>
	</g>
	<g>
		<g>
			<path class="st3" d="M1131.3,651.5c0,7.8-3.2,14.8-8.3,19.9c-5.1,5.1-12.1,8.2-19.9,8.2s-14.8-3.2-19.9-8.2
				c-5.1-5.1-8.3-12.1-8.3-19.9c0-15.5,12.6-28.2,28.2-28.2S1131.3,636,1131.3,651.5z"/>
		</g>
		<g>
			<path class="st14" d="M1092.8,643c0-5.7,4.6-10.4,10.4-10.4c5.7,0,10.4,4.6,10.4,10.4c0,5.7-4.6,10.4-10.4,10.4
				C1097.4,653.4,1092.8,648.7,1092.8,643z"/>
		</g>
		<g>
			<path class="st14" d="M1123,671.5c-5.1,5.1-12.1,8.2-19.9,8.2s-14.8-3.2-19.9-8.2c2.4-8.8,10.4-15.2,19.9-15.2
				S1120.6,662.7,1123,671.5z"/>
		</g>
	</g>
	<g>
		<g>
			<path class="st4" d="M1035.3,674.6H886.2c-6.5,0-11.8-5.3-11.8-11.8v-22.6c0-6.5,5.3-11.8,11.8-11.8h149.1
				c6.5,0,11.8,5.3,11.8,11.8v22.6C1047,669.3,1041.7,674.6,1035.3,674.6z"/>
		</g>
		<g>
			<g>
				<path class="st15" d="M928.8,646.1h-39c-0.9,0-1.6-0.7-1.6-1.6v-0.7c0-0.9,0.7-1.6,1.6-1.6h39c0.9,0,1.6,0.7,1.6,1.6v0.7
					C930.4,645.4,929.6,646.1,928.8,646.1z"/>
			</g>
			<g>
				<path class="st15" d="M946.5,655.5h-56.4c-1.1,0-1.9-0.9-1.9-1.9v-0.1c0-1.1,0.9-1.9,1.9-1.9h56.4c1.1,0,1.9,0.9,1.9,1.9v0.1
					C948.5,654.6,947.6,655.5,946.5,655.5z"/>
			</g>
			<g>
				<path class="st15" d="M1009.7,655.5H960c-1,0-1.8-0.8-1.8-1.8v-0.3c0-1,0.8-1.8,1.8-1.8h49.8c1,0,1.8,0.8,1.8,1.8v0.3
					C1011.5,654.7,1010.7,655.5,1009.7,655.5z"/>
			</g>
			<g>
				<path class="st15" d="M980.2,646.1h-39c-0.9,0-1.6-0.7-1.6-1.6v-0.7c0-0.9,0.7-1.6,1.6-1.6h39c0.9,0,1.6,0.7,1.6,1.6v0.7
					C981.8,645.4,981.1,646.1,980.2,646.1z"/>
			</g>
		</g>
	</g>
	<g>
		<g>
			<g>
				<path class="st14" d="M1074.7,1281.7l-185.4-6.2L679,1281l-0.5,15.8l203.3-9.1c20.4,0.7,36.4,19.4,35.6,41.8l0,0
					c-0.7,22.4-17.9,40-38.3,39.3l-202.8-6.8l-0.4,11.7l395.2,13.2c26.5,0.9,48.8-21.9,49.8-51l0,0
					C1121.9,1306.9,1101.2,1282.6,1074.7,1281.7z"/>
			</g>
			<g>
				<path class="st14" d="M935.5,1329.7L935.5,1329.7c1-29.1-19.7-53.3-46.3-54.2L679,1281l-0.5,15.8l203.3-9.1
					c20.4,0.7,36.4,19.4,35.6,41.8l0,0c-0.7,22.4-17.9,40-38.3,39.3l-202.8-6.8l-0.4,11.7l209.8,7
					C912.2,1381.6,934.5,1358.8,935.5,1329.7z"/>
			</g>
			<g>
				<path class="st23" d="M881.8,1287.8l-203.3,9l0,0c18.3,2.9,23.9,21.6,26.4,31.5c5.2,20.2-10.1,31.8-28.6,33.5l0,0.3l202.8,6.8
					c20.4,0.7,37.6-16.9,38.3-39.3l0,0C918.2,1307.2,902.2,1288.5,881.8,1287.8z"/>
			</g>
			<g>
				
					<rect x="787" y="1259" transform="matrix(3.340345e-02 -0.9994 0.9994 3.340345e-02 -578.889 2083.1882)" class="st2" width="1.1" height="163.7"/>
			</g>
			<g class="st8">
				<g>
					<path class="st24" d="M915.8,1375.8c-0.7,0-1.4-0.3-1.8-1c-0.7-1-0.4-2.4,0.6-3.1c0.2-0.1,16.1-11.2,18.7-42.2
						c2.6-30.8-19-42.6-19.2-42.7c-1.1-0.6-1.5-1.9-0.9-3c0.6-1.1,1.9-1.5,3-0.9c1,0.5,24.4,13.3,21.6,47
						c-2.8,33.3-19.9,45-20.7,45.5C916.6,1375.7,916.2,1375.8,915.8,1375.8z"/>
				</g>
			</g>
			<g>
				
					<rect x="704.9" y="1326.7" transform="matrix(0.9999 -1.581509e-02 1.581509e-02 0.9999 -20.8952 12.3087)" class="st2" width="125.7" height="1.1"/>
			</g>
			<g class="st8">
				<g>
					<path class="st24" d="M981.2,1364.8C981.2,1364.8,981.2,1364.8,981.2,1364.8l-39.7-1.3c-0.8,0-1.5-0.5-1.9-1.1
						c-0.4-0.7-0.4-1.5,0-2.2c0.1-0.1,6.9-12,10.9-27.9c3.8-15.3-6.6-31.3-6.7-31.4c-0.5-0.7-0.5-1.6-0.1-2.3c0.4-0.7,1.1-1.1,2-1.1
						l37.6,1.3c0.7,0,1.3,0.4,1.7,0.9c23.5,33.6-1.9,64.1-2.2,64.4C982.5,1364.5,981.8,1364.8,981.2,1364.8z M945.2,1359.2l35,1.2
						c3.7-4.8,20.7-29.5,1.9-57.3l-32.5-1.1c3.2,6,8.5,18.7,5.3,31.4C951.9,1345.1,947.6,1354.5,945.2,1359.2z"/>
				</g>
			</g>
		</g>
		<g>
			<g>
				<path class="st24" d="M680.6,1374.8h185.5l209.9,12.5v15.8l-202.9-15.8c-20.4,0-37,18.2-37,40.5l0,0c0,22.4,16.6,40.5,37,40.5
					H1076v11.7H680.6c-26.5,0-48-23.6-48-52.6l0,0C632.5,1398.4,654,1374.8,680.6,1374.8z"/>
			</g>
			<g>
				<path class="st24" d="M818.1,1427.4L818.1,1427.4c0-29.1,21.5-52.6,48-52.6l209.9,12.5v15.8l-202.9-15.8
					c-20.4,0-37,18.2-37,40.5l0,0c0,22.4,16.6,40.5,37,40.5H1076v11.7H866.1C839.6,1480.1,818.1,1456.5,818.1,1427.4z"/>
			</g>
			<g>
				<path class="st23" d="M873.1,1387.3l202.9,15.8l0,0c-18.4,2.3-24.6,20.8-27.5,30.6c-5.8,20,9,32.1,27.5,34.4v0.3H873.1
					c-20.4,0-37-18.2-37-40.5l0,0C836.1,1405.5,852.7,1387.3,873.1,1387.3z"/>
			</g>
			<g>
				<rect x="883.7" y="1442.9" class="st2" width="163.7" height="1.1"/>
			</g>
			<g>
				<path class="st2" d="M835,1473.7c-0.7-0.5-17.5-12.8-19.1-46.2c-1.7-33.7,22.1-45.7,23.1-46.2l1.9,4l-1-2l1,2
					c-0.9,0.4-22.2,11.3-20.7,42c0.8,16.2,5.5,27,9.2,33.2c4.1,6.7,8,9.6,8.1,9.6L835,1473.7z"/>
			</g>
			<g>
				
					<rect x="985.2" y="1367.7" transform="matrix(5.001092e-02 -0.9987 0.9987 5.001092e-02 -492.3279 2343.5464)" class="st2" width="1.1" height="125.7"/>
			</g>
			<g>
				<path class="st2" d="M771.3,1397h37.6c0,0-11.7,16.4-8.1,33c3.6,16.6,10.2,28.8,10.2,28.8h-39.7
					C771.3,1458.8,747.4,1428.8,771.3,1397z"/>
			</g>
		</g>
	</g>
	<g>
		<g>
			<path class="st19" d="M2244.4,982.3c-14.5-22.3-44.7-35.9-47-62.4c-0.9-9.8,2.4-20.6-2.7-29c-5.6-9.3-18.4-10.7-29.2-9.6
				c-11.8,1.2-24.4,4.8-31.7,14.2c-9.2,11.9-7.1,28.5-10,43.2c-7,35.5-41.9,57.3-73.8,74.3c-16.5,8.8-33.9,18.2-44,34.1
				c-17,26.8-7.6,61.6-9.1,93.4c-1.1,25.2-9.7,49.9-24.3,70.4c-8.6,12.1-17.5,23.9-27.2,35.2c-17.1,19.8-9.9,46.3,15,50.1
				c13.9,2.1,27.5-3.2,33.2-12.4c17.6-28.6,69.3-31,88.6-33.8s39.4-12.3,46.7-30.4c6.9-17,0.5-36.4,3.3-54.5
				c3.9-25.1,24.3-43.9,43.5-60.6c16.5-14.3,32.9-28.6,49.4-42.9c7.6-6.6,15.4-13.4,20.7-22
				C2256.4,1022.5,2255.4,999.2,2244.4,982.3z M2195.5,1041.4c-17.5,19.4-45.2,21.3-68.1,30.6c-17.8,7.2-33.2,16-53.2,15.1
				c-13-0.6-28.9-4.5-29.3-20c-0.7-26.7,35.7-31.4,54.6-32.6c11.7-0.7,23.8-1.6,34.4-6.8c7.8-3.9,14.4-10,18.8-17.5
				c3-5.1,5.1-11,9.3-15.2c2.8-2.8,6.4-4.7,10.2-5.7c11.1-3,23.9,2.1,29.8,12C2209.4,1013.7,2205.2,1030.6,2195.5,1041.4z"/>
		</g>
		<g>
			<path class="st14" d="M1851.4,1321.8c0,0,26.9,189.2,46.6,190.9c19.7,1.7,93.5,5.7,115.9,0c22.5-5.7,34.9-193.6,28.7-198.2
				C2036.5,1310,1843.2,1300.2,1851.4,1321.8z"/>
		</g>
		<g>
			<path class="st14" d="M2036.8,1436.2l-8.8-17.2c24.2-12.3,59.7-36.4,62.9-51.2c0.4-2,0.1-3.4-1.1-5c-9.6-11.9-25.4-8-30.6-6.7
				c-11.8,2.9-21.6,8.8-21.7,8.9l-10.1-16.4c0.5-0.3,12.3-7.5,27.2-11.2c27.4-6.8,42.5,3.5,50.4,13.4c4.9,6.1,6.6,13.4,4.9,21.1
				c-2.9,13.5-16,28-40,44.5C2053.1,1427.9,2037.5,1435.9,2036.8,1436.2z"/>
		</g>
		<g>
			<path class="st25" d="M1914.2,1414c-6.4-35,26-49,50.9-49c24.9,0,43.5,18,43.5,42.9c0,24.9-24.5,51.1-49.4,51.1
				C1934.3,1459.1,1918.7,1438.5,1914.2,1414z"/>
		</g>
		<g>
			<path class="st19" d="M1953.9,1453c-12,0-22.7-4.7-31-13.7c-7.5-8.1-12.8-19.3-15.2-32.2c-2.3-12.7,0.1-23.6,7.4-32.3
				c11-13.2,30.3-18,44.6-18c25.8,0,44.6,18.5,44.6,44C2004.4,1426.7,1978.9,1453,1953.9,1453z M1959.8,1359
				c-13.8,0-32.4,4.5-42.9,17.2c-6.8,8.2-9.1,18.5-6.9,30.6h0c2.3,12.6,7.4,23.3,14.6,31.2c7.9,8.5,18,13,29.4,13
				c23.9,0,48.3-25.3,48.3-50.1C2002.2,1376.6,1984.4,1359,1959.8,1359z"/>
		</g>
	</g>
	<g>
		<g>
			<g>
				<path class="st4" d="M971.5,1025.4c0,18.9-15.1,32.1-33.9,32.4c-0.2,0-0.4,0-0.6,0c-0.6,0-1.3,0-1.9,0
					c-18.2-1-34.5-13.9-34.5-32.4c0-19.1,17.4-34.7,36.4-36.7C962.8,986,971.5,1006.3,971.5,1025.4z"/>
			</g>
		</g>
		<g>
			<path class="st14" d="M914,1009.7c0,0,8.3-6.2,15.2-4.5c6.8,1.7,25.6,21.3,28,26.7c2.3,5.3-0.6,14.1-3.8,14
				c-3.2-0.1-12.2-7-11.3-9.7c0.9-2.8,5.3-3.4,4.7-5.6c-0.6-2.1-16.2-16.9-17.5-16.2c-1.3,0.6-3.2,6-8.1,4.1
				C916.1,1016.5,912.1,1010.9,914,1009.7z"/>
		</g>
	</g>
	<g>
		<g>
			<g>
				<path class="st14" d="M1063.1,1025.4c0,18.9-15.1,32.1-33.9,32.4c-0.2,0-0.4,0-0.6,0c-0.6,0-1.3,0-1.9,0
					c-18.2-1-34.1-13.4-32.7-34.5c1.3-19,20.8-34.8,39.9-34.8C1053,988.5,1063.1,1006.3,1063.1,1025.4z"/>
			</g>
		</g>
		<g>
			<path class="st4" d="M1001.5,1031.9c0,0,1.8-10.2,8-13.6c6.2-3.4,33.3-2,38.7,0.3c5.4,2.3,9.2,10.7,6.8,12.8
				c-2.4,2.1-13.6,3.3-14.9,0.6c-1.3-2.6,1.6-6.1-0.4-7.3c-1.9-1.1-23.4-1.2-23.9,0.1c-0.5,1.3,1.8,6.5-3.1,8.5
				C1007.7,1035.5,1000.9,1034.1,1001.5,1031.9z"/>
		</g>
	</g>
</g>
</svg>
