<svg xmlns="http://www.w3.org/2000/svg" viewBox="0 0 64 80" width="64" height="80">
	<style>
		tspan { white-space:pre }
		.shp0 { fill: #000000 } 
		.txt1 { font-size: 5px;fill: #000000;font-family: "' Helvetica  Neue'" } 
	</style>
	<g id="Layer">
		<path id="Layer" fill-rule="evenodd" class="shp0" d="M41.39 51.62C34.89 55.09 27.01 54.69 20.89 50.58C14.78 46.48 11.43 39.33 12.19 32C12.94 24.67 17.68 18.36 24.51 15.59C24.99 15.43 25.52 15.46 25.98 15.67C26.44 15.88 26.81 16.26 27 16.73C27.19 17.21 27.2 17.73 27.01 18.21C26.83 18.68 26.47 19.07 26.01 19.29C18.96 22.16 14.92 29.62 16.39 37.09C17.85 44.57 24.4 49.96 32.01 49.96C39.62 49.96 46.17 44.57 47.63 37.09C49.1 29.62 45.06 22.16 38.01 19.29C37.49 19.11 37.06 18.73 36.83 18.23C36.6 17.73 36.59 17.15 36.79 16.64C37 16.13 37.41 15.73 37.92 15.53C38.44 15.33 39.01 15.35 39.51 15.59C41.34 16.32 43.04 17.33 44.57 18.56C46.1 19.8 47.44 21.26 48.54 22.89C49.64 24.52 50.49 26.31 51.06 28.19C51.63 30.07 51.92 32.03 51.92 34C51.94 41.37 47.89 48.14 41.39 51.62ZM31.23 32.55C30.99 32.45 30.77 32.3 30.59 32.11C30.4 31.93 30.25 31.71 30.15 31.47C30.05 31.22 30 30.96 30 30.7L30 12C30 11.47 30.21 10.96 30.59 10.59C30.96 10.21 31.47 10 32 10C32.53 10 33.04 10.21 33.41 10.59C33.79 10.96 34 11.47 34 12L34 30.7C34 30.96 33.95 31.22 33.85 31.47C33.75 31.71 33.6 31.93 33.41 32.11C33.23 32.3 33.01 32.45 32.77 32.55C32.52 32.65 32.26 32.7 32 32.7C31.74 32.7 31.48 32.65 31.23 32.55Z" />
	</g>
	<text id="from the Noun Project" style="transform: matrix(1,0,0,1,0,84)" >
		<tspan x="0" y="0" class="txt1">from the Noun Project</tspan>
	</text>
</svg>